<?xml version="1.0" encoding="utf-8"?>
<!-- Generator: Adobe Illustrator 24.2.1, SVG Export Plug-In . SVG Version: 6.00 Build 0)  -->
<svg version="1.1" xmlns="http://www.w3.org/2000/svg" xmlns:xlink="http://www.w3.org/1999/xlink" x="0px" y="0px"
	 viewBox="0 0 190.4 190.4" style="enable-background:new 0 0 190.4 190.4;" xml:space="preserve">
<style type="text/css">
	.st0{fill:none;stroke:#FFFFFF;stroke-miterlimit:10;}
	.st1{fill:#FFFFFF;}
	.st2{fill:#D1D1D1;}
	.st3{fill:#222122;}
	.st4{fill:#DCDCDB;}
	.st5{fill:#393939;}
	.st6{fill:#9F9E9D;}
	.st7{fill:#B1B1B1;}
	.st8{fill:#A8A8A8;}
	.st9{fill:#C6C5C6;}
	.st10{fill:#777676;}
	.st11{fill:#53504F;}
	.st12{fill:#BBBBBB;}
	.st13{fill:#666463;}
	.st14{fill:#818181;}
	.st15{fill:#8B8B8B;}
	.st16{fill:#5C3C2C;}
</style>
<g id="Calque_2">
</g>
<g id="Calque_1">
	<circle class="st0" cx="95.2" cy="95.2" r="94.7"/>
	<circle class="st1" cx="95.2" cy="95.2" r="84.7"/>
	<g>
		<path d="M80.6,35.5c1.5,0.6,2.5,1.5,2.7,3.2c0.1,0.5,0.1,0.9,0.2,1.4c0.1,0.9,0.2,1.8,0.3,2.7c0,0.2,0.2,0.4,0.4,0.5
			c2.3,0.7,4.6,1.6,6.7,2.8c0.2,0.1,0.6,0,0.7-0.1c1-0.8,2.1-1.6,3.1-2.4c1.6-1.2,3.4-1.1,4.8,0.3c1.8,1.8,3.7,3.6,5.5,5.5
			c1.5,1.5,1.5,3.2,0.3,4.9c-0.9,1.2-1.9,2.3-2.6,3.3c0.9,2.4,1.8,4.7,2.6,6.9c0.1,0.2,0.3,0.3,0.5,0.4c1.4,0.2,2.8,0.3,4.2,0.5
			c1.9,0.3,3.1,1.5,3.1,3.5c0.1,2.7,0.1,5.3,0,8c0,2-1.3,3.3-3.3,3.5c-1.4,0.2-2.7,0.4-4.1,0.5c-0.4,0-0.5,0.2-0.6,0.5
			c-0.8,2.1-1.7,4.2-2.6,6.2c-0.1,0.3-0.2,0.5,0.1,0.8c0.9,1.1,1.8,2.3,2.7,3.5c1.2,1.6,1.1,3.4-0.3,4.8c-1.8,1.8-3.6,3.7-5.5,5.5
			c-1.4,1.4-3.3,1.5-4.9,0.2c-1.1-0.9-2.2-1.8-3.3-2.7c-0.3-0.3-0.6-0.3-1-0.1c-2.1,0.9-4.2,1.7-6.3,2.5c-0.4,0.1-0.5,0.3-0.6,0.7
			c-0.2,1.6-0.3,3.2-0.5,4.8c-0.2,1.6-1.6,2.9-3.4,2.9c-2.7,0-5.4,0.1-8.1,0c-2.1,0-3.3-1.4-3.5-3.9c-0.1-1.3-0.3-2.7-0.5-4
			c0-0.2-0.3-0.5-0.5-0.6c-2-0.9-3.9-1.7-5.9-2.5c-0.2-0.1-0.6-0.1-0.8,0.1c-1.3,1-2.5,2-3.7,2.9c-1.5,1.2-3.3,1.1-4.7-0.2
			c-1.9-1.9-3.8-3.8-5.7-5.7c-1.3-1.3-1.4-3.2-0.2-4.7c1-1.2,1.9-2.5,2.9-3.7c0.3-0.3,0.3-0.6,0.1-0.9c-0.8-1.8-1.6-3.7-2.3-5.5
			c-0.1-0.3-0.3-0.5-0.6-0.5c-1.3-0.1-2.6-0.4-3.9-0.5c-1.9-0.1-3.2-0.9-3.9-2.7c0-3.2,0-6.4,0-9.6c0.6-1.8,1.9-2.7,3.8-2.8
			c1.3-0.1,2.6-0.3,3.8-0.5c0.2,0,0.5-0.2,0.5-0.4c0.9-2.3,1.7-4.6,2.6-7c-0.8-1.1-1.8-2.3-2.8-3.6c-1.3-1.6-1.2-3.4,0.3-4.9
			c1.8-1.8,3.6-3.6,5.4-5.4c1.5-1.5,3.3-1.6,4.9-0.3c1,0.8,2.1,1.6,3.1,2.5c0.3,0.2,0.5,0.3,0.8,0.1c2.1-1.2,4.3-2.2,6.7-2.8
			c0.4-0.1,0.6-0.3,0.6-0.7c0.1-0.9,0.2-1.9,0.3-2.8c0.1-2,0.7-3.6,2.8-4.3C74.2,35.5,77.4,35.5,80.6,35.5z M75.8,86.2
			c7.5,0,13.4-6.1,13.4-13.6c0-7.2-6.2-13.2-13.4-13.2c-7.5,0.1-13.4,6.1-13.3,13.6C62.5,80.2,68.6,86.2,75.8,86.2z"/>
		<path d="M145,81.8c0.6-0.6,1.3-1.3,2.1-1.9c1.4-1.3,3.2-1.4,4.7-0.1c1.4,1.1,2.7,2.3,4,3.4c1.5,1.3,1.8,3,0.7,4.7
			c-0.5,0.8-1.1,1.6-1.6,2.4c-0.1,0.2-0.1,0.5,0,0.7c0.8,1.6,1.6,3.2,2.4,4.8c0.1,0.2,0.3,0.4,0.5,0.4c0.9,0.1,1.8,0.1,2.7,0.1
			c2,0,3.4,1.1,3.6,3.1c0.2,2,0.4,3.9,0.5,5.9c0.1,1.7-1.1,3-2.7,3.4c-0.9,0.2-1.9,0.4-2.8,0.6c-0.4,0.1-0.6,0.3-0.7,0.7
			c-0.5,1.7-1.1,3.4-1.6,5.1c-0.1,0.2,0,0.6,0.1,0.7c0.6,0.8,1.4,1.5,2,2.2c1.4,1.5,1.4,3.2,0.1,4.8c-1.1,1.4-2.3,2.7-3.5,4.1
			c-1.2,1.4-3,1.7-4.6,0.7c-0.9-0.5-1.7-1.1-2.5-1.7c-0.3-0.2-0.6-0.2-1,0c-1.6,0.8-3.2,1.6-4.8,2.4c-0.4,0.2-0.5,0.3-0.5,0.7
			c0,1,0,1.9-0.1,2.9c-0.1,2.1-1.3,3.4-3.5,3.6c-1.6,0.1-3.2,0.3-4.8,0.4c-2.4,0.2-3.8-0.9-4.2-3.2c-0.2-0.9-0.3-1.9-0.6-2.8
			c-0.1-0.2-0.3-0.5-0.6-0.6c-1.6-0.5-3.2-1-4.7-1.6c-0.4-0.1-0.6-0.1-0.9,0.2c-0.8,0.7-1.5,1.5-2.3,2.2c-1.4,1.2-3.2,1.3-4.6,0.2
			c-1.5-1.2-2.9-2.4-4.3-3.6c-1.3-1.1-1.6-2.9-0.6-4.4c0.6-1,1.2-1.9,1.9-2.8c0.2-0.3,0.2-0.5,0-0.8c-0.8-1.4-1.5-2.9-2.3-4.3
			c-0.1-0.2-0.4-0.4-0.6-0.4c-1.1-0.1-2.1-0.1-3.2-0.1c-1.9-0.1-3.3-1.2-3.5-3.1c-0.2-1.9-0.3-3.7-0.4-5.6c-0.1-1.9,1-3.3,2.9-3.7
			c0.9-0.2,1.8-0.4,2.7-0.5c0.4-0.1,0.6-0.3,0.7-0.7c0.5-1.7,1-3.4,1.5-5c0.1-0.2,0-0.6-0.2-0.7c-0.6-0.8-1.4-1.5-2-2.2
			c-1.3-1.4-1.4-3.2-0.2-4.7c1.2-1.5,2.4-2.9,3.6-4.3c1.1-1.3,2.9-1.5,4.4-0.6c0.8,0.5,1.6,1.1,2.4,1.6c0.3,0.2,0.5,0.2,0.9,0
			c1.7-0.9,3.3-1.8,5-2.6c0.4-0.2,0.6-0.4,0.6-0.9c0-0.8,0-1.6,0-2.4c0.1-2.1,1.4-3.3,3.5-3.5c1.6-0.1,3.2-0.3,4.7-0.4
			c2.4-0.2,3.8,0.8,4.2,3.2c0.2,0.8,0.3,1.6,0.5,2.3c0.1,0.2,0.3,0.5,0.5,0.5C140.9,80.6,142.9,81.2,145,81.8z M145,104.6
			c0-6.1-4.9-11-11-10.9c-6,0-10.9,5-10.9,11c0,6,4.9,10.9,11,10.9C140.1,115.6,145,110.7,145,104.6z"/>
		<path d="M107.9,130.6c0.8,0.1,1.5,0.2,2.3,0.3c1.6,0.2,2.8,1.6,2.8,3.2c0,1.2,0,2.4,0,3.6c0,1.8-1.3,3.1-3,3.4
			c-0.7,0.1-1.6,0-2.2,0.4c-0.5,0.4-0.5,1.3-0.8,1.9c-0.3,0.8-0.8,1.5-1.1,2.3c-0.1,0.2-0.1,0.5,0,0.7c0.4,0.6,0.8,1.1,1.2,1.6
			c1,1.4,0.9,3.1-0.3,4.3c-0.9,0.9-1.8,1.8-2.7,2.6c-1.2,1.1-3,1.2-4.3,0.2c-0.6-0.4-1.1-0.9-1.7-1.3c-0.2-0.1-0.5-0.1-0.6-0.1
			c-1.4,0.5-2.7,1.1-4.1,1.6c-0.4,0.2-0.5,0.4-0.5,0.8c-0.1,0.7-0.1,1.4-0.3,2.1c-0.3,1.6-1.6,2.7-3.3,2.7c-1.1,0-2.3,0-3.4,0
			c-2-0.1-3.4-1.4-3.5-3.4c0-0.6-0.1-1.2-0.2-1.8c0-0.4-0.2-0.6-0.6-0.7c-1.2-0.5-2.4-1-3.5-1.5c-0.3-0.2-0.5-0.2-0.8,0.1
			c-0.5,0.4-1.1,0.8-1.6,1.2c-1.5,1.1-3.3,1-4.6-0.3c-0.8-0.8-1.5-1.5-2.3-2.3c-1.4-1.4-1.4-3.2-0.2-4.7c0.4-0.5,0.9-1,1.3-1.6
			c0.1-0.2,0.1-0.5,0.1-0.7c-0.5-1.2-1-2.4-1.4-3.6c-0.1-0.3-0.3-0.5-0.6-0.5c-0.7-0.1-1.4-0.2-2.2-0.3c-1.5-0.2-2.8-1.5-2.9-3.1
			c-0.1-1.3-0.1-2.6,0.1-3.9c0.2-1.9,1.4-3.2,3.5-3.2c1.4,0,2.1-0.4,2.4-1.9c0.2-0.9,0.7-1.7,1.1-2.6c0.2-0.4,0.2-0.6-0.1-0.9
			c-0.4-0.4-0.7-0.9-1.1-1.4c-1.1-1.5-1-3.3,0.3-4.6c0.8-0.8,1.6-1.6,2.4-2.4c1.4-1.3,3.1-1.4,4.6-0.2c0.4,0.3,0.9,0.7,1.3,1
			c0.3,0.3,0.5,0.2,0.8,0.1c1.4-0.6,2.8-1.2,4.2-1.7c0.3-0.1,0.5-0.2,0.5-0.6c0-0.6,0.2-1.2,0.2-1.7c0.2-1.7,1.6-2.9,3.3-2.9
			c1.1,0,2.2,0,3.3,0c2,0,3.4,1.3,3.5,3.2c0.1,1.4,0.5,2.3,2,2.6c0.9,0.2,1.8,0.8,2.7,1.2c0.4,0.2,0.6,0.2,0.9-0.1
			c0.4-0.3,0.8-0.6,1.2-0.9c1.4-1.1,3.2-0.9,4.5,0.3c0.8,0.8,1.6,1.6,2.4,2.5c1.2,1.3,1.3,3,0.2,4.5c-0.4,0.5-0.8,0.9-1.1,1.4
			c-0.1,0.1-0.1,0.4-0.1,0.6c0.3,0.7,0.7,1.4,1,2.2C107.4,129.1,107.6,129.8,107.9,130.6z M96.9,135.7c0-5-4-9-8.9-9
			c-4.9,0-8.9,4-8.9,8.9c0,4.9,4,9,8.9,8.9C93,144.6,96.9,140.6,96.9,135.7z"/>
	</g>
</g>
</svg>
