<?xml version="1.0" encoding="utf-8"?>
<!-- Generator: Adobe Illustrator 24.2.1, SVG Export Plug-In . SVG Version: 6.00 Build 0)  -->
<svg version="1.1" xmlns="http://www.w3.org/2000/svg" xmlns:xlink="http://www.w3.org/1999/xlink" x="0px" y="0px"
	 viewBox="0 0 190.4 190.4" style="enable-background:new 0 0 190.4 190.4;" xml:space="preserve">
<style type="text/css">
	.st0{fill:none;stroke:#FFFFFF;stroke-miterlimit:10;}
	.st1{fill:#FFFFFF;}
	.st2{fill:#D1D1D1;}
	.st3{fill:#222122;}
	.st4{fill:#DCDCDB;}
	.st5{fill:#393939;}
	.st6{fill:#9F9E9D;}
	.st7{fill:#B1B1B1;}
	.st8{fill:#A8A8A8;}
	.st9{fill:#C6C5C6;}
	.st10{fill:#777676;}
	.st11{fill:#53504F;}
	.st12{fill:#BBBBBB;}
	.st13{fill:#666463;}
	.st14{fill:#818181;}
	.st15{fill:#8B8B8B;}
	.st16{fill:#5C3C2C;}
</style>
<g id="Calque_2">
</g>
<g id="Calque_1">
	<circle class="st0" cx="95.2" cy="95.2" r="94.7"/>
	<circle class="st1" cx="95.2" cy="95.2" r="84.7"/>
	<g>
		<path d="M118,142c-20.3,0-40.7,0-61,0c-0.3-0.1-0.6-0.3-0.9-0.4c-4.8-1.5-8-5.4-8-10.4c-0.1-11.5-0.1-22.9,0-34.4
			c0-3.4,1.6-6.1,4.3-8c0.5-0.4,1.5-0.4,2.1-0.2c8.3,3.5,16.3,3.1,24.1-1.3c0.7-0.4,1.6-0.6,2.4-0.7c4.4-0.1,8.7,0,13.1,0
			c0.7,0,1.4,0.1,1.9,0.5c8,4.6,16.1,5,24.6,1.4c0.5-0.2,1.5-0.1,1.9,0.3c2.9,2.1,4.5,5.1,4.5,8.7c0.1,11.2,0.1,22.4,0,33.6
			c0,4.2-2,7.3-5.5,9.5C120.3,141.1,119.1,141.5,118,142z"/>
		<path d="M42.9,62.8c0.3-1.4,0.6-2.8,1-4.2C46.8,48.3,55.9,41.9,67,42.5c9.5,0.4,18.1,8.1,20,18c0.1,0.3,0.2,0.6,0.5,1.4
			c1.1-6.3,3.9-11.2,8.7-14.9c4.8-3.6,10.3-5.2,16.2-4.3c11.8,1.7,19.6,11.1,19.4,22.9c-0.2,10.9-8.9,20-20.4,21.2
			c-9.1,0.9-21-4.5-24-19.3c-0.2,1-0.4,1.7-0.6,2.3C84.2,80.1,75.2,87,64.6,86.8C54.4,86.7,45.5,79.2,43.3,69
			c-0.2-0.7-0.3-1.4-0.5-2.1C42.9,65.5,42.9,64.1,42.9,62.8z M109.6,73.6c5-0.1,9.1-4.3,9-9.2c-0.1-5-4.3-9-9.3-8.9
			c-4.9,0.1-8.9,4.2-8.9,9.1C100.5,69.5,104.7,73.7,109.6,73.6z M56.2,64.5c0,5.1,4,9.1,9,9.2c5,0.1,9.1-4,9.1-9
			c0-5-4.1-9.1-9.1-9.1C60.1,55.6,56.2,59.5,56.2,64.5z"/>
		<path d="M157.5,114.2c0,5.9,0,11.8,0,17.7c0,2.1-0.6,3.8-2.5,4.9c-1.9,1-3.6,0.6-5.3-0.4c-5.8-3.4-11.7-6.8-17.5-10.2
			c-1.1-0.6-1.5-1.3-1.5-2.5c0.1-6.2,0.1-12.4,0-18.6c0-1.2,0.3-1.8,1.3-2.4c6-3.4,11.9-6.9,17.9-10.3c4-2.3,7.7-0.2,7.7,4.5
			C157.6,102.7,157.6,108.4,157.5,114.2C157.6,114.2,157.6,114.2,157.5,114.2z"/>
	</g>
</g>
</svg>
