<?xml version="1.0" encoding="utf-8"?>
<!-- Generator: Adobe Illustrator 24.2.1, SVG Export Plug-In . SVG Version: 6.00 Build 0)  -->
<svg version="1.1" xmlns="http://www.w3.org/2000/svg" xmlns:xlink="http://www.w3.org/1999/xlink" x="0px" y="0px"
	 viewBox="0 0 190.4 190.4" style="enable-background:new 0 0 190.4 190.4;" xml:space="preserve">
<style type="text/css">
	.st0{fill:none;stroke:#FFFFFF;stroke-miterlimit:10;}
	.st1{fill:#FFFFFF;}
	.st2{fill:#D1D1D1;}
	.st3{fill:#222122;}
	.st4{fill:#DCDCDB;}
	.st5{fill:#393939;}
	.st6{fill:#9F9E9D;}
	.st7{fill:#B1B1B1;}
	.st8{fill:#A8A8A8;}
	.st9{fill:#C6C5C6;}
	.st10{fill:#777676;}
	.st11{fill:#53504F;}
	.st12{fill:#BBBBBB;}
	.st13{fill:#666463;}
	.st14{fill:#818181;}
	.st15{fill:#8B8B8B;}
	.st16{fill:#5C3C2C;}
</style>
<g id="Calque_2">
</g>
<g id="Calque_1">
	<circle class="st0" cx="95.2" cy="95.2" r="94.7"/>
	<circle class="st1" cx="95.2" cy="95.2" r="84.7"/>
	<g>
		<path class="st2" d="M122.2,57.8c0.5,0.6,1.8,0,1.7,0.9c0,0.3,0.1,0.8-0.5,0.8c-1.1,0-0.5,4.7-0.9,5.7c-0.3,2.3-0.7,4.6-0.4,6.9
			c0.3,3.4-0.4,6.8-0.2,10.3c0.2,6.2-1.1,8,1.6,14.1c0.2,0.5,0.3,0.7,1,0.6c2.3-0.3,4.6-0.7,6.9-0.8c3.1,0.2,2.7,0.2,2.6,2.9
			c-0.4,1.3,0.8,3.9-1.2,4c-0.3,0-0.5,0.1-0.8,0.4c3-0.1,2.9-0.5,2.8,2.5c-0.8,0.1-1.6-0.2-2.3,0.4c-6.4-0.6-5.5-3.5-8.6,2.3
			c-0.1,0.4,0.2,0.2,0.4,0.3c0,0.1,0.1,0.2,0.1,0.2c2.7,0.7,5.2,1.7,7.9,2.2c0,0.2-0.1,0.4-0.4,0.4c-1.8-0.3-3,1-4.6,1.3
			c-2,0.4-3.9,1-5.9,1.6c-0.3-0.5,0.2-0.3,0.4-0.4c1.4-0.2,1.4-1.3,0.1-1.6c-0.6-0.2-1.2,0-1.8-0.2c-4.5-1.1-9.2-0.7-13.7-0.2
			c-1,0.1-2.1,0.6-3.1,0.1c-0.5-0.2-1-0.2-1.4,0.2c-1,0.7-2.3,0.2-3.3,0.8c-3.1-0.4-6-1.7-8.9-2.5c-0.3-1.5,3.6-0.3,3.5-1.5
			c0.7-0.1,1.4,0.1,2.1-0.2c-0.3-0.5-1.2,0-1.3-0.8c0.4-0.3,0.6-0.6,0.9-1c1.2-1.9,2,0.8,2.4-0.4c0.5-0.2,1.3,0.5,1.5-0.1
			c0.2-0.6,0.4-1.3-0.5-1.8c-0.7-0.3-1.2-0.9-1.9-1c0-0.2,0.1-0.5-0.2-0.6c0.3-0.6,0.2-1.3,0-1.9c3.7-0.9,7.8-0.6,11.4-1.8
			c-0.3-0.4-0.6-0.3-0.9-0.3c-1.9,0.4-3.3,0-5.1-0.6c0.5-0.2,0.9-0.3,1.4-0.4c-0.5-0.1-0.9-0.2-1.3-0.3c0.2-0.5,1-0.5,0.9-1.3
			c0.6,0.3,0.4,1.4,1.2,1.1c1.9-0.4,3.6-0.5,5.6,0.2c-0.8,0.4-1.4,0.3-1.9,0.8c2.3-0.6,4.6-0.1,6.9-0.5c-2.7-0.5-5.3-1.7-8.2-1.4
			c-0.1-0.5,0.3-2-0.6-1.7c-1,0.3-1.7-0.3-2.7-0.3c0.3-0.4,0.7-0.2,1-0.4c0.6,0,1.2-0.1,1.7-0.1c1.2,0.7,2.8,0.5,4.1,1.5
			c-0.4-1.5-2-0.8-2.8-1.5c-0.4-0.7-0.8-0.4-1.3-0.2c-1.7-0.2,2.1-2.5,1.9-3.4c0.2-0.9,0.2-1.9,0.2-2.9c0.6-0.2,1.3,0,1.7-0.6
			c0.6,0,0.6,0.8,0.6,1.3c0,1.8,0,1.8,1.7,1.9c0.1,2.1,0.8,2.9-1.8,3.2c1.8,0.5,2.4,0.9,2.3-1.3c1.3-0.8,2-2.2,3.1-3.1
			c-0.3,1.1-0.1,2.2-0.2,3.3c-0.1,2.3-0.1,2.3,1.5,2.5c1.9,0.5,2.4,0.9,3.1-1.2c0.6,0.9,0.6,2.6,2.1,2.3c0.3,0,0.1-0.3,0.1-0.5
			c-0.9-2.6-1.7-5.3-2.9-7.7c-0.5,1.5-1,3-1.5,4.5c-0.3-0.3-0.2-0.7-0.2-1c0-1.7,0-3.3,0-5c0.1-2.7-0.3-5.5,0.4-8.1
			c0.4,0,0.8,0,1.2-0.2c0.3,1-0.5,7.1,0.3,6.9c0.3,0,0.8,0.6,1-0.2c0-2,0.3-4,0.2-6c0.1-1.4-0.4-2.9,0.6-4.1c1.3-1.8-2-2.7-2-1.8
			c-0.5,0.4-1,0.8-1.6,1.2c0.2-4.7,0.5-9.4,0.5-14.1c-0.3-1.4,1.3-0.8,2-1.3C120.9,59.1,121.3,57.7,122.2,57.8z M125.1,101.9
			c0.9-0.3,1.1-0.5,1-1.4c0.1-0.6-0.3-0.8-1.1-0.8c0.8-0.2,1.1-0.8,0.6-1.2c-0.8,0.2-1.8,2.4-2.5,3.2c-0.4,0.6-0.3,0.9,0.5,1
			c0,0,0,0,0.1,0.1c-0.1,0.6-0.8,0.7-0.8,1.3c-1.2,0.9,1.4,0.6,1.9,0.5c0.2,0,0.7,0,0.5-0.6c0,0,0-0.1,0-0.1
			c0.8-0.1,1.1-0.7,1.1-1.3C126.4,101.8,125.6,102,125.1,101.9z M116.1,98.3c2,0,3.9-0.4,5.9-1c-3-0.4-5.5-1.6-8.6-1.7
			C114.8,96.1,115.4,98.9,116.1,98.3z M126.6,99.3c0.5,0.1,1.7,1,1.9,0.4C128.9,98.8,127.3,98.9,126.6,99.3z"/>
		<path class="st3" d="M114.2,135c-0.6-0.3-0.9-0.2-1,0.6c-0.1,1.7-0.4,3.5-0.6,5.2c-0.8,4.2-8.1,4.3-11.5,4.4
			c-3.8-0.2-12.3-0.3-12.4-5.5c-0.3-3.2-0.7-6.3-1-9.5c0-0.5-0.5-1,0-1.5c1.1,1.4,2.7,2.2,4.5,2.3c7.2,2.2,14.6,0.7,21.7-0.6
			C114,132.1,114.3,133.5,114.2,135z"/>
		<path class="st4" d="M132.5,106.4c2.5-1.3,5.7,0.9,8.3,1.3c6.6,2.2,13.6,2.9,20,5.4c4.4,1.8,8.5-1.7,12.7,0.5
			c-2.3,0.6-4.9,0.9-7.3,1.4c-0.1-0.2,0.1-0.6-0.2-0.5c-0.4,0-0.1,0.5-0.3,0.7c-0.4,0.1-0.8-0.1-1.1,0.2
			c-10.2,1.9-20.1,5.1-30.4,6.5c-0.1-0.5,0.6-0.5,0.4-1c-0.2-0.4-0.6-0.2-1-0.3c-3.2-0.2-5,1.1-8.4,0c0.2,0.3,0.8,0.2,0.6,0.7
			c-0.2,0.6-1.1,0-1.1,0.7c-0.1,0-0.1,0-0.2,0c-0.4-0.4-0.8-0.5-1.3-0.2c-2,0.6-4.7-2.1-7.1-2c-0.7-0.7-5.3-1.2-2.3-2.1
			c2.2-0.4,4.1-2.1,6.4-2.3c0.2,0,0.9-0.1,0.9-0.6c2-0.6,3.9-1.2,5.9-1.6c1.6-0.3,2.9-1.7,4.6-1.3c0.2,0,0.3-0.1,0.4-0.4
			c0.4,0,0.8,0.1,1.1,0.1c4.7,1.6,9.8,2.8,14.6,4.5c1.6,0.5,3.2,0.7,4.7-0.1c2.7-0.2,5.4-1.1,8-1.6
			C151.5,111,141.9,109.2,132.5,106.4L132.5,106.4z"/>
		<path class="st5" d="M72.1,124.6c-2.1-0.8-2.5-1.8-1.7-4c0.2-0.6,0.9-0.3,1.3-0.6c-0.6-0.4-1.3-0.7-1.9-1.1
			c0.7-0.8-0.6-1.8,1.4-2.7c-1-0.4-1.3-1.2-0.5-1.5c0.6-0.3,0.7-0.8,0.9-1.4c0.6,0,0-0.6,0,0c-1.7-1,0.6-1.4-0.7-2.8
			c-0.3-1.8-0.4-3.8-0.7-5.6c0-0.4-0.3-0.4-0.5-0.4c-0.4,0-0.3,0.3-0.3,0.5c0,1.7,0,3.4-0.8,5c0.8,0.1,0.6,1,1.1,1.5
			c-1.5-0.1-0.8,1.8-2.2,1.7c0.2,0.4,0.4,0.7,0.8,0.7c0.6-0.1,0.4,0.7,0,0.8c-0.3,0.1-0.3-0.1-0.3-0.3c-0.3-0.9-1,0.1,0.1,1.2
			c-0.4,0.3-0.6,0.1-0.9-0.1c-1.4-0.7-0.4,1.1-2.2,0.6c-1.5-0.2-0.6,1.4-1.1,2.5c-0.5,0.1-1,0.1-1.5,0.2c0-0.3,0-0.6,0-0.9
			c0-0.4,0.5-0.9,0.1-1.1c-2.4-0.1-5,0.9-7.5,0.9c1-1.1,2.6-1.9,2.7-3.5c1.2-3.1,3.1-5.9,4.9-8.8c1.6-0.8,6.2-0.3,6.8-1.9
			c0.1,0,0.3,0,0.4,0c0.1,0.9,0.7-0.1,1.1,0c0.1,0.3-0.2,0.8,0.2,0.9c0.5,0.1,1.1-0.9,1.6-1.1c0.1,0.1,0.2,0.1,0.2,0.2
			c0.1,0.2,1,0,0.4,0.6c0.4,0.1-0.1,0.7,0.3,0.8c0.9,0.2,0.2-0.9,1.6-0.4c0.3,0.2,0.3,0.9,0.7,0.7c1.1-0.4,0.2-2.2,1-2.6
			c0.7,0.4,1.3,0.1,1.2,1.3c-0.2,2.1-0.2,4.2-0.6,6.2c-0.2,1.3,0.2,1.7,1.2,2c0.2,1-0.2,8,0.6,7.6c0,0.2,0,0.5,0.2,0.6
			c0.2,0.6-0.3,1-0.3,1.5c0.1,0.9-0.4,1.2-1.2,0.9C74.5,121.5,72.3,119,72.1,124.6z M75.8,115.8c1.2,0.7,1.5,0.8,1.3-0.7
			c-0.1-0.3,0.1-0.8-0.4-0.8C75.9,114.3,76.9,115.5,75.8,115.8z M68.1,105c-0.5,0.8-0.8,1.4-1.2,2.1C67.8,106.7,68.5,106.3,68.1,105
			z M66.9,113.9c0.1-0.3,0.5-0.5,0.1-0.8C66.3,112.9,66.6,113.6,66.9,113.9z M68.3,111.4c-0.1,0-0.1,0-0.2-0.1
			c-0.1,0.1-0.1,0.2,0.1,0.2C68.3,111.5,68.3,111.5,68.3,111.4z"/>
		<path class="st3" d="M63.4,69.1c0.4-0.1,3.4,1.4,2.3,0.2c0-0.2,0-0.4,0-0.6c1,0.5,3.1,0.2,3.1,1.6c0.3,2.6,0.1,5.3,0.2,7.9
			c-1.6-0.2-3.2-0.7-4.8-0.9c-10.3-3.7-21.1-5.7-31.3-9.8c0-2.1-2.2-1.8-3.4-0.9c-0.1,0-0.2,0-0.2,0c0.1-0.9-0.7-1.1-1.2-1.6
			c-1.3-1.1-1.4-3.6-0.4-5.1c-4.2,0-3.2,0.5-3.8-3.4c-0.1-0.6,0.1-0.6,0.6-0.7c2,0,4-0.3,6-0.2c0.5,6-0.8,3.4,3.1,4.5"/>
		<path class="st3" d="M63.9,72c0.2,0.4,0.7,0.3,0.6-0.2"/>
		<path class="st3" d="M46.5,66.7c-0.1-0.4-0.6-0.6-0.9-0.9"/>
		<path class="st3" d="M52.8,71.5c0-0.4-0.6-0.7-0.1-1.2c0.2-0.2-0.1-0.5-0.3-0.5"/>
		<path class="st6" d="M34,120.8c-3.4,0.4-6.9,1.3-10.3,1.5c-0.4-2.9-0.4-5.8-0.6-8.7c2,0-0.8-1.1-0.8-1.9c0.8-0.3,1.7,0.1,2.6-0.3
			c2.9,1.1,4.9,2.1,4.8-2.2c1.7,0.5-0.3,2.2,0.6,2.3c0.4,0,1.1,0.1,1.1-0.7c0.3,0.2,0.6,0.4,1,0.6c0,0.3-0.4,0.5-0.3,0.9
			c5.1,0.2,9.9-2.7,14.9-3.8c-0.2,3.5,0.3,7,0.2,10.5c-1.4,0.2-2.7,0.4-4.1,0.6c-0.2-0.3-0.6-0.6-0.9-0.5c-1,0.2-3.8-0.2-4.2,1.1
			C36.6,120.4,35.3,120.8,34,120.8z"/>
		<path class="st7" d="M143,120.4c7.1-1.9,14.4-3.4,21.6-5c-0.2,0.6-0.3,1.1,0,1.7c-0.9,0.2-2.4,0.4-1.2,1.4
			c-1.3,1.6-2.7,5.5-4.5,6.2c-2.6,0.5-5.1,1.6-7.8,2c-0.1-1.3-2.6-4.2-3.6-5.2c-1.3-2.1-1.3,2.3-1.5,3.1c0.1,0.7-0.7,0.7-0.9,0.1
			C144.6,123.1,142.6,122.3,143,120.4z"/>
		<path class="st8" d="M143,120.4c-0.3,1.9,1.7,2.7,2.3,4.3c0.2,0.6,1,0.6,0.9-0.1c0.2-0.7,0.2-5.1,1.5-3.1c1,1,3.4,3.9,3.6,5.2
			c-4.9,1.2-9.8,2.3-14.8,3.1c-0.2-0.7-0.6-1.4-1.2-1.8c-1.3-1.5-0.8-4.2-1-6.1C137.2,121.6,140,120.9,143,120.4z"/>
		<path class="st6" d="M134.2,122c0.2,1.9-0.3,4.4,1,5.9c0.6,0.5,0.9,1.1,1.2,1.8c-3.8,1.2-8.1,1.2-11.8,3c-0.7-0.3-1.2,0.3-2,0.2
			c0.8-0.9,1.3-1.8,2.2-2.5c1.1-0.1,0.4-1,0.6-1.5c1.2-0.2,2.4-0.6,3.6-0.7c0.9,0,0.8-0.7,0.7-1.2c-0.1-0.9-1.2-0.2-1.7-0.2
			c-0.5-0.8-1.6-0.1-2.1-0.8c1.2-0.3,2.5-0.4,3.5-0.9c0.6,0,0.6-0.4,0.5-0.8c-0.1-0.6-0.5-0.2-0.7-0.2c-0.5,0-1.1,0.2-1.6,0.4
			c-0.3-0.4,0-0.9-0.2-1.4C129.7,122.8,131.9,122.4,134.2,122z"/>
		<path class="st3" d="M79.3,119.7c-0.5,0-0.4-0.4-0.4-0.7c1.9-1.8,3.6-3.7,5.5-5.5c0.6,0.2,1.2,0.9,1.9,0.2
			c0.2-0.2,0.5,0.1,0.5,0.3c-0.4,0.9,0.4,1.4,0.5,2.1c0.1,1.6,2.2,0.9,2.8,2.1c-0.1,2.6-0.2,5.3-0.3,7.9c-0.6,0-1.1,0.6-1.7,0.6
			c-0.1,0-0.2,0-0.2,0.1l0,0c-3,0.4-2.4-3.9-2.5-5.8c1-0.3,0.9,1.5,1.7,0.3c0.4-0.6,0-1.2,0.1-1.8c0.3-1.1-1.1-1.8-1.8-1
			C83.3,118.7,81.4,119.3,79.3,119.7z M86.9,122c-0.2,0.2-0.2,0.3,0,0.4C87.1,122.3,87.1,122.2,86.9,122z"/>
		<path class="st3" d="M124.8,130.5c-0.9,0.6-1.4,1.6-2.2,2.5c0.8,0.1,1.3-0.5,2-0.2c0,0.3,0,0.7,0,1c-6.6,2.4-4.2,0.5-4,9.8
			c-0.8-0.1-1.5-0.6-2.2-0.9c-0.3-0.1-0.3-0.4-0.3-0.7c-0.1-2.2-0.3-4.3-0.4-6.5c0-1.5-0.5-0.9-1.6-0.9c1.4-3,3.9-5.5,6-8.1
			c0.1,0.6-0.4,1.3,0.4,0.9c0,0.2,0,0.4-0.1,0.5c0.1,0.1,0.2,0,0.3-0.1c0.2,0,0.4,0,0.6,0c0.2,0.2,0.3,0.4,0.4,0.6
			C123.3,129.5,123.9,130.2,124.8,130.5z"/>
		<path class="st6" d="M122.1,126.6c-2.1,2.6-4.6,5-6,8.1c-0.6,0.3-1.3,0.4-2,0.4c0.1-2.4-0.4-4.7-0.4-7c-0.1-1.6-0.1-1.6-1.7-1.9
			c-0.4-0.3-0.9-0.4-1.4-0.6c0-0.1,0-0.3,0-0.4c1.6-0.8,0.4-1.1,2.5-0.4c2.9,1.1,6.1-0.3,9-0.4c0.1,0.7,0.1,1.3,0.1,2
			C122.3,126.4,122.2,126.5,122.1,126.6z"/>
		<path class="st7" d="M166.5,115c2.3-0.6,4.8-0.7,7-1.4c1.3,0.1,0.8,2.5,0.9,3.4c-0.2,1.1,0.7,4.4-0.8,4.4
			c-2.8,0.5-5.6,1.1-8.3,1.7c-0.1-0.1-0.7,0.3-0.4-0.3c0.3-0.7,0.8-1.1,1.2-1.7c0.6-0.1,1-0.2,1-0.9c0.4-0.1,0.7-0.2,1.1-0.3
			c-0.2-0.5-1.1-0.3-1.1-0.9c0.4-0.3,1-0.3,1.5-0.4c0.8-0.1,0.7-0.6,0.5-1c-0.3-0.6-0.9-0.6-1.5-0.8c-0.2-0.1-0.7,0-0.7-0.2
			C167,116.1,166.4,115.6,166.5,115z"/>
		<path class="st3" d="M165.6,121.7c-0.2,0.4-0.5,0.8-0.7,1.2c-0.3,0.6,0.2,0.2,0.4,0.3c0,1.1,0,2.2-0.2,3.3
			c-5.3,0.9-3.2,0.4-3.9,6.2c-0.8-0.1-1.5-0.5-2.2-0.7c-0.5-0.1-0.4-0.5-0.4-0.9c0.1-2.1,0.2-4.3,0.3-6.4c1.8-0.7,3.2-4.6,4.5-6.2
			c0.8-0.1,0.5,1.1,1.4,1c-0.4,0.2-0.4,0.4-0.4,0.8C164.4,121.2,165.2,121.2,165.6,121.7z"/>
		<path class="st9" d="M75.2,59.7c8.2-0.3,16.3-1.3,24.5-1.3c-0.1,0.6,0.4,1.9-0.6,1.9c-1.5,0-2.9,0.2-4.3,0.1
			c-2.8,0-5.5,0.5-8.3,0.4c-0.3,0-0.5,0-0.6,0.4c-0.1,0-0.1,0-0.2,0c-0.3-0.3-0.5-0.3-0.8,0c-3.3,0.3-6.7-0.1-10,0.6
			c-0.1-0.9-0.9-1.2-1.4-1.8c0.1-0.1,0.1-0.1,0.2-0.2C74.3,60,74.8,59.8,75.2,59.7z"/>
		<path class="st3" d="M34.5,120.8c1.1-0.2,2.2-0.4,3.3-0.6c0.9,0.5,0.5,3.3,1.2,3.9c0.9,0.1,3-3.2,4.1-2.9c0.3,1.5,0.5,2.9,0.8,4.4
			c0.1,0.5,0,0.8-0.6,0.8c-5,1.3-5.3-0.6-9.3-2.9C34,122.6,34.6,121.8,34.5,120.8z"/>
		<path class="st6" d="M120.6,143.6c-0.2-9.2-2.6-7.3,4-9.8c0.2,2.8,0.3,5.6,0.5,8.3c0,0.3,0,0.6-0.3,0.6
			C123.4,143,122,143.6,120.6,143.6z"/>
		<path class="st7" d="M33.3,60.2c-3.7-0.6-2.3,0.9-2.8-4.4c0.6-0.1,0.6-0.6,0.5-1c-0.1-1.2,0.2-2.3,0.2-3.5c0,0,0,0,0,0
			c0.3,0.1,0.4,0,0.4-0.3c0.8,0.2,1.7,0.3,1.1,1.5c0.6,0.5-0.3,1.2,0.2,1.7c0,1.2-0.3,1.5,1.2,1.4c1,0,1.9,0,2.9,0
			c0.6,0,0.8,0.1,0.9,0.7c-0.2,1,1.2,3.5-0.5,3.4C36.3,60,34.1,59.6,33.3,60.2z"/>
		<path class="st3" d="M63.9,118.6c0.5-1.1-0.4-2.8,1.1-2.5c1.7,0.5,0.8-1.2,2.2-0.6c0.3,0.2,0.5,0.4,0.9,0.1
			c-1.2-1.1-0.5-2.1-0.1-1.2c0,0.2,0.1,0.4,0.3,0.3c0.4-0.2,0.5-1,0-0.8c-0.4,0-0.6-0.3-0.8-0.7c1.3,0.1,0.7-1.8,2.2-1.7
			c-0.6-0.5-0.3-1.4-1.1-1.5c0.8-1.6,0.8-3.3,0.8-5c0-0.2-0.1-0.5,0.3-0.5c0.3,0,0.5,0,0.6,0.4c0.3,1.8,0.3,3.8,0.7,5.6
			c1.3,1.4-1,1.8,0.7,2.8l0,0c-0.2,0.5-0.2,1-0.9,1.4c-0.7,0.4-0.4,1.2,0.5,1.5c-2,1-0.8,1.9-1.4,2.7
			C67.9,117.4,65.9,118.5,63.9,118.6z M69.1,113.1c0.1,0,0.1,0,0.2,0.1C69.4,113,69.1,112.8,69.1,113.1z M70.6,114.1
			c-0.1,0-0.1,0-0.1,0C70.6,114.2,70.6,114.2,70.6,114.1z"/>
		<path class="st2" d="M85.9,61.3c0-0.3,0.3-0.4,0.6-0.4c2.8,0,5.5-0.5,8.3-0.4c1.4,0,2.9-0.1,4.3-0.1c1,0,0.5-1.3,0.6-1.9
			c2.8-0.1,5.7-0.1,8.5-0.2c0.5,0,1.2,0.1,1.4-0.6c0.3-0.2,0.6-0.2,1-0.1c-0.3,0.2-0.7,0.1-0.6,0.6c0.2,0.6,0.9,0.2,1.3,0.1
			c0.6,0.1,1.3-0.1,1.9,0.2c0.2,0.8,1.5,0.6-0.1,1.3c-1.2,0.4-3-0.6-3.6,0.9c-0.1-0.4-0.3-0.7-0.8-0.6
			C101.2,60.6,93.6,61.4,85.9,61.3z"/>
		<path class="st3" d="M72.1,124.6c0.2-5.6,2.4-3.1,6-1.9c0.9,0.4,1.4,0,1.2-0.9c-0.1-0.6,0.5-1,0.3-1.5c1.6-0.1,3.2-0.3,4.9-0.4
			c0,0.7,0.2,1.5,0,2.1c-0.3,0.7-1.2,0.3-1.8,0.6C79.3,123.9,75.5,124.1,72.1,124.6z"/>
		<path class="st3" d="M23,113.6c0.2,2.9,0.2,5.8,0.6,8.7c-0.7-0.3-3.2-1.9-3.1-2.7c-0.1-2.6-0.3-5.2-0.2-7.8
			C21.2,112.4,22.1,113,23,113.6z"/>
		<path class="st5" d="M29.4,66.8c1.1-0.8,3.4-1.2,3.4,0.7c-0.5-0.4-1.9-0.9-2.3-0.3c-0.1,0.4,0.3,0.2,0.5,0.4
			c0.1,0.1,0.1,0.2,0.1,0.2c-0.9,0.4-0.9,0.4,0,1.2c-0.9,0.4-0.9,0.4,0,1.2l0,0.1l0-0.1c-0.4,0-0.7,0.2-0.8,0.6
			c-0.1,0.3,0.4,0.1,0.5,0.4c-0.6,0.8-0.6,0.8,0.4,1.2l0,0c-0.4-0.1-0.7,0.2-0.8,0.6c-0.1,0.6,0.6,0.3,0.8,0.6
			c-0.5,0.1-1.2,0.3-0.7,0.9c0.6,0.7-0.6,0.7-0.2,1.2c0.2,0.2,0.7,0,0.9,0.3c-1,0.3-1,0.4-0.2,1.3c0,0-0.1,0.1-0.1,0.1
			c-0.5,0.1-1,0.5-0.2,0.6c-0.2,0.6-0.8,1.2,0.3,1.5c0,0,0,0,0,0c-0.6,0-0.7,0.3-0.6,0.8c0.3,0.5-0.2,0.8-0.2,1.2
			c-0.3,0-0.6,0-0.9,0c0-0.2,0.2-0.2,0.3-0.2c-0.8-1,0-4.2-0.3-5.7c0-0.6,0.1-1.2,0-1.7c-0.1-0.2-0.1-0.4,0.1-0.6
			c0.1-0.1,0.2-0.3,0.2-0.3c-0.5-0.4-0.3-0.8,0-1.2c-0.9-0.4,0.4-1.3-0.4-1.7c0.8-0.4-0.4-1.2,0.3-1.7c0,0,0-0.1,0-0.1
			C28.8,67.8,29.6,67.2,29.4,66.8z"/>
		<path class="st10" d="M34.9,60.7c8.7,2.3,17.5,4.7,26.3,7c-0.5,1,3.7,1.2,4.4,1.6c0.3,0.3,0.4,0.6-0.1,0.4
			c-4.4-1.5-9.2-1.8-13.5-3.8c-2.5-0.8-5-1.4-7.6-2"/>
		<path class="st7" d="M161.2,132.7c0.7-5.8-1.4-5.3,3.9-6.2c-0.1,1.6-0.1,3.2-0.2,4.9C165.2,132.3,162,132.6,161.2,132.7z"/>
		<path class="st3" d="M29.3,81.3c0.3,0,0.7,0,1,0c0.1,5,0.1,10,0.2,15c-0.4,0.3-0.4,0.7,0,1c0,0.1,0,0.2,0,0.4c-0.1,0-0.2,0-0.3,0
			c0,0-0.1-0.1-0.1-0.1c0,0,0.1,0.1,0.1,0.1c-0.2,0.5,0.2,1.3-0.8,1.4C29.2,93.1,29.3,87.2,29.3,81.3z"/>
		<path class="st9" d="M88.1,126.7c0.6,0,1.1-0.6,1.7-0.6c0.7-0.1,1.3-0.3,1.9-0.6c0.9,1.4-0.1,3.2,0.8,4.5
			c-0.1,0.4-0.5,0.7-0.4,1.1c-1.8-0.2-3.3-0.9-4.5-2.3c-0.5-0.7,0.3-1.3,0.2-1.9C87.9,126.8,88,126.7,88.1,126.7z"/>
		<path class="st8" d="M43.1,121.2c-1.1-0.3-3.2,2.9-4.1,2.9c-0.7-0.6-0.3-3.4-1.2-3.9c0.4-1.4,3.1-0.9,4.2-1.1
			C43.1,119,43,120.5,43.1,121.2z"/>
		<path class="st5" d="M29.5,99c0.9-0.1,0.6-0.9,0.8-1.4c0.1,0,0.2,0,0.3,0c0.4,0.5-0.2,2.1,0.3,2.3c0.5,0.2,1.1-0.9,1.7-1.1
			c0.4-0.3,0.9,0.3,0.6,0.6c-0.8,0.5-1,1.5-1.9,1.9c-1.5,0-2,1.7-3.2,2.3c-0.4,0.2-0.9,0.5-1.2,1c-1.3,0.2-2.2,1.5-3.1,2.4
			c-0.4,0.4-0.5,1.1-1.2,1.2c0.4-1.8,2.6-3.3,3.9-4.5C28.1,102.4,29.9,101.3,29.5,99z"/>
		<path class="st11" d="M22.7,108.2c0.7-0.1,0.8-0.8,1.2-1.2c0.8-0.9,1.5-1.8,2.6-2.3c0,0.3-0.3,0.5-0.4,0.8
			c-0.5,0.6-1.3,0.9-1.6,1.6c-0.6,1-1.7,1.5-1.9,2.7c-0.1,0.5-0.3,0.9-0.7,1.3c-1.1,0.8-1.6,0.1-1.5,1.9c-0.5-0.6-4.4,3.6-5,4.2
			c-0.3,0.3-0.7,1-1.1,0.6c-0.3-0.3,0-0.5,0.2-0.7C17.2,114.2,19.9,111.2,22.7,108.2z"/>
		<path class="st11" d="M65.7,69.3c-0.7-0.4-4.9-0.5-4.4-1.6c0.1,0,0.3,0,0.4,0.1c0.5,0.7,2.4,0.9,2.1-0.3c0-1.5,0.1-3.1,0.1-4.6
			c0.5-0.7,0.4-1.5,0.5-2.2c0-0.3-0.3-0.7,0.2-0.9c0.4,0.6,0,1.3,0.4,1.9c0.2,2,0,3.9,0,5.9c-0.3,0.8-0.1,1.2,0.8,1.2
			C65.7,68.9,65.7,69.1,65.7,69.3z"/>
		<path class="st12" d="M111.5,58.1c-0.4,0.1-1.1,0.5-1.3-0.1c-0.1-0.5,0.3-0.4,0.6-0.6c-0.4-0.1-0.7-0.2-1,0.1
			c-0.3-0.1-0.7,0.2-0.7-0.3c0.6-0.2,1.3-0.1,1.3-1c0.5,0,1,0,1.4-0.4c0.8,0.5,0.9,0.1,0.8-0.6c0.2,0,0.4,0,0.6,0
			c-0.3,1.3,0.6,1.2,1.6,1.2c0.4,0.5,1.5-0.3,1.6,0.7C116.1,58.3,112,56.8,111.5,58.1z"/>
		<path class="st10" d="M64.5,59.7c-0.5,0.2-0.1,0.6-0.2,0.9c-0.1,0.8,0,1.6-0.5,2.2c0.2-1.5-1.5-0.7-2.4-0.9
			c-0.2-0.6,0.2-1.3,0.4-1.7c0.6-0.4,1.8,0.3,2.1-0.5c0.1-0.3-0.3-0.3-0.4-0.3c-0.5-0.1-0.7-0.4-0.6-0.9c0.1-0.7,0.6-0.3,0.9-0.3
			c0.6,0,1.3-0.1,1.8,0.2C65.6,59.2,65.5,59.6,64.5,59.7z"/>
		<path class="st2" d="M115.3,57.6c0.3,0,0.8,0.1,0.8-0.5c0-1-1.1-0.1-1.6-0.7c0-0.1,0-0.1,0-0.2c0.9-0.2,3.1,0.6,2.9-0.8
			c0-0.3,0.4-0.4,0.6-0.3c0.5,0.2,1,0.1,1.5,0.1c0,0.5,0,0.9,0,1.4c-0.8,0.2-0.9-0.7-1.3-0.2c-0.3,0.4,0,1,0.1,1.5
			c-0.2,0-0.4,0.1-0.6,0.1c-0.6-0.3-1-0.1-1.4,0.3c-0.2,0-0.5,0.1-0.7,0.1c-0.1-0.2-0.2-0.4-0.5-0.5
			C115.3,57.8,115.3,57.7,115.3,57.6z"/>
		<path class="st4" d="M119.6,56.6c0-0.5,0-0.9,0-1.4c3.1-0.3,0.7,1.2,2.7,1.2c0.7,0.1,2-0.3,2.1,0.7c0.1,0.6-1.1,0.6-1.5,0.7
			c-0.7-0.4-1.4-0.1-2.1-0.1C121,56.6,120.4,56.5,119.6,56.6z"/>
		<path class="st5" d="M85.4,118.6c0.7-0.8,2.2-0.2,1.8,1c-0.1,0.6,0.3,1.2-0.1,1.8c-0.7,1.2-0.7-0.6-1.7-0.3
			C85.3,120.2,85.3,119.4,85.4,118.6z"/>
		<path class="st10" d="M31.2,51.3c-0.1,1.2-0.3,2.3-0.2,3.5c0.2,1.1-0.9,1-1.7,1c1-0.9-0.3-0.8,0.1-1.3c0.6-0.3,0-0.6,0-1
			c0.4-0.1,1.3,0,1.2-0.6c-0.1-0.5-0.6-0.1-1-0.2c-0.9-0.9,1.4-0.1,1.1-1.3C30.8,51.4,31,51.3,31.2,51.3z"/>
		<path class="st13" d="M84.4,119.9c-1.6,0.1-3.2,0.3-4.9,0.4c-0.2-0.2-0.2-0.4-0.2-0.6c1.3-0.3,2.6-0.5,3.9-0.8
			C83.3,119.6,84.2,119.3,84.4,119.9z"/>
		<path class="st9" d="M70.2,58.3c0.1-0.9,0.8-0.7,1.5-0.8c1.1-0.2,2,0.3,2.8,1c-0.8,0.4-1.7,0.1-2.5,0.2c-0.6-0.3-1.2-0.2-1.8-0.3
			C70.2,58.4,70.2,58.4,70.2,58.3z"/>
		<path class="st11" d="M65.3,59.5c0.3-0.3,0.1-0.8,0.2-1.2c1.1,0,2.2-0.1,3.3,0.1c-0.2,0.5-1.2,0.5-0.8,1.3c-0.9,0-1.8,0-2.7,0
			C65.3,59.7,65.3,59.6,65.3,59.5z"/>
		<path class="st12" d="M71.9,58.7c2.3,0.3,3.5-1,3.3,1c-0.5,0.1-0.9,0.3-1.4,0.2c-0.6-0.4-1.4,0.2-1.9-0.4
			C71.9,59.2,71.9,59,71.9,58.7z"/>
		<path class="st9" d="M68.2,58.3c-1-0.1-2.1,0.2-3-0.1c-0.5-1.4,1-0.9,1.8-1C68,57,68.3,57.4,68.2,58.3z"/>
		<path class="st13" d="M60.6,117c3.1-0.7,1.6,0.1,1.8,1.9C61.5,118.5,60.3,118.1,60.6,117z"/>
		<path class="st13" d="M68,59.7c-0.4-0.8,0.6-0.8,0.8-1.3c0.5,0,0.9-0.1,1.4-0.1c0,0.5,0.3,1,0,1.5c-0.6,0.1-1.3,0-1.9,0
			C68.2,59.8,68.1,59.8,68,59.7z"/>
		<path class="st4" d="M114.6,56.2c0,0.1,0,0.1,0,0.2c-0.9,0.1-1.9,0.1-1.6-1.2C114.2,54.8,114.5,55,114.6,56.2z"/>
		<path class="st11" d="M61.8,60.2c0.1,0.6-0.6,1.1-0.4,1.7c-1.3,0.1-0.7-0.9-0.7-1.4C60.7,59.7,61.4,60.3,61.8,60.2z"/>
		<path class="st5" d="M34.5,120.8c0.1,1-0.5,1.8-0.6,2.7c-0.4-0.9-0.2-1.8,0-2.7C34.2,120.8,34.4,120.8,34.5,120.8z"/>
		<path class="st2" d="M110.3,56.2c0,0.9-0.7,0.8-1.3,1C108.9,55.9,109,55.8,110.3,56.2z"/>
		<path class="st13" d="M29.6,52.7c0.3,0.1,0.9-0.3,1,0.2c0.1,0.6-0.8,0.5-1.2,0.6C29.2,53.2,29.9,53.1,29.6,52.7z"/>
		<path class="st4" d="M112.4,55.2c0.1,0.7,0,1.1-0.8,0.6c0-0.2,0-0.4,0-0.6C111.9,55,112.2,55,112.4,55.2z"/>
		<path class="st10" d="M63.4,68.2c-0.7,0.2-1.3,0.1-1.8-0.4C62.2,67.8,62.8,67.9,63.4,68.2z"/>
		<path class="st11" d="M30.6,51.4c0.1,0.8-0.5,0.8-1,0.8C29.8,51.7,30.1,51.4,30.6,51.4z"/>
		<path class="st7" d="M121.1,57.6c0.6,0,1.2-0.2,1.8,0.1c-0.5,0.1-1.1-0.2-1.4,0.2C121.3,58,121.2,57.8,121.1,57.6z"/>
		<path class="st2" d="M111.6,55.2c0,0.3,0.1,0.8-0.4,0.8C111.3,55.7,111.1,55.3,111.6,55.2z"/>
		<path class="st10" d="M31.6,51c0,0.3-0.1,0.4-0.4,0.3C31.2,51.1,31.3,51,31.6,51z"/>
		<path class="st12" d="M78.7,112.1c-1-0.3-1.4-0.8-1.2-2c0.4-2,0.4-4.1,0.6-6.2c0.1-0.7-0.1-1-0.8-1.1c0.5-0.7,1.4-0.1,1.9-0.6
			c2.1-0.1,4.2-0.2,6.2-0.7c6,0.1,12.1-0.9,18.1-1.8c1.2,0.5,2.6-0.6,3.7,0.2c-3.6,1.2-7.8,0.8-11.4,1.8c-2.8,0.2-5.6,0.4-8.4,0.8
			c-1,0.1-1.1,0.3-0.8,1.4c-0.1,0.1-0.1,0.3-0.2,0.4c-1,0.1-1,0.3-1,1.2c-0.5,0.1-0.7,0.4-1,0.7c-0.4,0.4-1.2,0.7-0.9,1.3
			c0.3,0.6,1,0.1,1.5,0.2c-0.2,0.4-0.6,0.6-0.6,1.1c-0.1,0.4-0.7,1,0.1,1.1c0.9,0.1,1.9,0,2.7-0.7c0.5,1.7,0.6,1.8,2.2,1.8
			c3,0.8,5.9,2.1,8.9,2.5c0.6,0.6,1.5,0.4,2.1,1c-0.5,0.2-0.9,0.4-1.1,0.7c-4.3-1.3-8.6-2.9-13-3.9C86.1,110.2,80,112.1,78.7,112.1z
			"/>
		<path class="st9" d="M99.4,115.2c0.3-0.3,0.7-0.5,1.1-0.7c-0.6-0.7-1.5-0.5-2.1-1c1-0.6,2.4-0.1,3.3-0.8c0.5-0.4,0.9-0.4,1.4-0.2
			c1.1,0.5,2.1,0.1,3.1-0.1c3-0.4,6-0.7,8.9-0.5c2.2,0,4.4,0.6,6.6,0.9c1.3,0.3,1.3,1.4-0.1,1.6c-0.2,0-0.7-0.2-0.4,0.4
			c-0.1,0.6-0.7,0.6-0.9,0.6c-2.3,0.2-4.1,1.8-6.4,2.3c-3.1,0.9,1.6,1.4,2.3,2.1c-0.6,0.5-1.5,0.4-2.2,0.7c-1.8-0.6-3.6-1.3-5.4-1.9
			c0-0.8,1-0.2,1.1-0.7c0.1-0.4-0.3-0.3-0.5-0.4c-2.6-1-6.7-3.6-9.3-2c-0.1,0-0.3,0-0.4,0C99.5,115.3,99.4,115.3,99.4,115.2z
			 M112.7,117.7c-0.1-0.1-0.2-0.1-0.2,0.1C112.6,117.9,112.7,117.8,112.7,117.7z"/>
		<path class="st9" d="M103.5,94.6c-0.2,0.2-0.6,0-1,0.4c1,0,1.7,0.7,2.7,0.3c1-0.3,0.5,1.2,0.6,1.7c-1,0.6-2.1,0.4-3.1,0.6
			c-0.2-0.2-0.1-0.6-0.5-0.7c0.2,0.8-0.6,0.8-0.9,1.3c-1-0.3-3.9,0.7-3.6-0.9c0.3,1.4-1.7,0.7-2.2,1.3c-1.7-0.2-3.4,0.7-5.1,0.3
			c0.3-2-2.5-1.3-3.5-2.3c4.8-0.7,9.6-1.3,14.5-1.6c0.4,0,0.3-0.5,0.3-0.7C102.3,94.5,102.9,94.1,103.5,94.6z M91,96.4
			c-0.1,0-0.1,0,0,0.1C91,96.4,91,96.4,91,96.4C91,96.4,91,96.4,91,96.4z"/>
		<path class="st9" d="M89.4,110.9c-1.6,0-1.6,0-2.2-1.8c0.1-0.4,0.9-0.9,0.6-1c-1-0.4-0.5-1.1-0.6-1.6c1.4-0.4-0.2-1.8-0.6-2.4
			c0.3-0.2,0.4,0.1,0.7,0.2c0.6,0.2,0.7-1.3,0.1-1.1c-0.3,0.1-0.6,0.2-0.8,0.5c-0.4-1-0.2-1.2,0.8-1.4c2.8-0.4,5.6-0.6,8.4-0.8
			c0.2,0.6,0.3,1.3,0,1.9c-0.3,0.3-0.9,0-1.2,0.4c-0.2,0-0.4,0.1-0.4,0.4c-0.4,0.9-1.5,1.2-1.7,2.3c-0.9,0.5-1.3,1.3-1.9,2
			c-0.1,0.2-0.6,0.2-0.5,0.6c0.1,0.3,0.4,0.1,0.7,0.1c0.7,0,1.4,0,2.1,0.1C93,110.6,89.2,109.4,89.4,110.9z M89,106.1
			c0.3,0.3,0.7,0.4,0.7,0.9c-0.1,0.5,0.8,0.5,0.7,0C90.7,105.8,89.9,105.6,89,106.1z M89,103.9c0.5,0.2,0.8,0.8,1.3,0.6
			c0.2,0,0.2-0.5,0.1-0.6C89.9,103.5,89.4,103.7,89,103.9z"/>
		<path class="st8" d="M107.4,88.1c-0.1,1.8,0,3.7-1.7,4.7c-0.9,0-0.7-0.9-1-1.4c-0.1-0.4,0.3-0.7,0.2-1.1c-0.5-2.1-2.3-1.1-1.5,0.5
			c-0.3,0.6-0.9,0.1-1.2,0.4c-0.2-0.7,0.7-2.6-0.2-2.7c-0.4-0.9-2-0.9-1.7-2.1C102.6,87,105,87.6,107.4,88.1z"/>
		<path class="st8" d="M117.6,68.1c-0.1,2.5-0.2,4.9-0.3,7.4c-0.7,0.1-1.4,0.6-2.1,0.4c0.1-3.2-0.1-6.6,0.4-9.7
			C116.3,66.7,117,67.4,117.6,68.1z"/>
		<path class="st14" d="M133.4,111.6c-3.1-0.2-6-1.7-9-2.3c-0.1,0-0.1-0.2-0.1-0.2c0.9-0.1,1.7-0.2,2.6-0.3c-0.7-1.7-1.8,0-2.9,0
			c0.6-1.2,1.4-2.3,2.2-3.5c0.3,0.3,0.1,0.8,0.2,1.1c0.7,3.8,5.8,2.6,8.4,3.9c0.2,0.3,0.7,0.2,0.8,0.6
			C134.7,111.1,133.9,111,133.4,111.6z"/>
		<path class="st8" d="M117.1,86.8c0,1.7,0,3.3,0,5c0,0.3-0.1,0.7,0.2,1c-0.3,0.9-0.4,1.8-0.3,2.7c-0.2,0.1-0.4-0.1-0.6-0.1
			c-0.3-1-0.9-1.8-1.5-2.5c0-1.1-0.2-2.2,0.2-3.3c0-0.3,0.1-0.5-0.2-0.8c0-0.7,0-1.3,0.2-1.9C115.7,86.8,116.4,86.8,117.1,86.8z"/>
		<path class="st8" d="M126.2,106.4c-0.1-0.4,0.1-0.8-0.2-1.1c0.5-0.3,1,0,1.4,0.1c1.7,0.4,3.3,0.8,5,1c0,0,0,0,0,0
			c1,1.8,2.7,3,3.7,4.7c-0.3,0-0.6,0.1-0.8-0.2c-0.1-0.4-0.6-0.3-0.8-0.6c-0.2-0.8-0.7-1.5-1.4-1.5c-1.3-0.1-2.5-1.3-3.9-0.7
			C128.3,107.7,127.1,107.2,126.2,106.4z"/>
		<path class="st7" d="M115.1,75.9c0.8,0.2,1.4-0.3,2.1-0.4c0.4,2.4-0.2,4.7-0.2,7c-0.1,0-0.2,0-0.4,0c-0.4-0.7-0.8-1.5-1.5-2
			c-0.1-0.4-0.2-0.8-0.4-1.2C115.5,78.4,115,76.9,115.1,75.9z"/>
		<path class="st15" d="M116.9,95.5c-0.1-2.5,1.2-4.8,1.8-7.2c0.2,0.1,0.2,0.4,0.3,0.6c-0.5,1.7,0.2,3.6,0.4,5.3
			C118.7,95.8,118.8,96,116.9,95.5z"/>
		<path class="st7" d="M117.8,60.4c0.1,1.6,0,6-0.2,7.6c-0.9-0.4-1.2-1.2-2.1-1.9c-0.1-1.3,0.1-5.2,0.2-6.5
			C116.9,59.1,117,60.4,117.8,60.4z"/>
		<path class="st6" d="M104.6,91.4c0.3,0.5,0.1,1.3,1,1.4c-0.2,0.5-1.6,1.4-0.4,1.6c0,0.1,0,0.1,0,0.2c-0.6,0-1.2,0.1-1.7,0.1
			c-0.5-0.5-1.2-0.1-1.8-0.3c-0.5-1-0.2-1.9,0.3-2.7C102.9,91.7,103.8,91.4,104.6,91.4z"/>
		<path class="st6" d="M92.5,106.6c0.2-0.9,0.9-1.3,1.5-1.9c0.5,0.2,0,0.9,0.5,1.1c0.3-0.5,0.1-0.9,0.2-1.3c1,0,1.6,0.9,2.5,1.2
			c0,0.3,0,0.7,0,1c-0.2,0.1-0.2,0.2-0.2,0.4c-0.2,0.7-0.5,0.2-0.7,0c-1.3-1.2-1.7,0.8-2.6,1.3C93.7,107.5,92.6,107.4,92.5,106.6z"
			/>
		<path class="st15" d="M95.5,98.7c0.5-0.6,2.6,0.1,2.2-1.3c-0.5,1.7,3.6,0.4,4.9,1.2c-0.5,0.1-0.8,0.2-1.4,0.4
			c0.9,0.3,1.7,0.5,2.4,0.7c-1.3,0.4-2.6,0.4-3.9,0.6C97.8,98.4,97.3,99.7,95.5,98.7z"/>
		<path class="st6" d="M122.9,104.1c0.1-0.6,0.8-0.8,0.9-1.5c0,0-0.1,0-0.1,0.1c-0.8-0.1-1-0.4-0.5-1c0.7-0.7,1.6-3,2.5-3.2
			c0.5,0.4,0.2,1.1-0.6,1.2c0.7,0,1.1,0.2,1.1,0.8c0,0.4,0.2,1-0.5,1.1c0.1-0.9-0.5-0.3-0.8-0.3c-0.9,0.2-0.5,0.9-0.6,1.5
			c0.6-0.3,0.1-1.2,1-1c0.2,1.1-0.9,1,0.1,2c0,0,0,0.1,0,0.1C124.5,104,123.7,103.6,122.9,104.1z"/>
		<path class="st8" d="M119.4,94.2c-0.2-1.7-0.9-3.6-0.4-5.3c1.1,2.3,1.8,4.7,2.6,7.1c0.1,0.2,0.2,0.5-0.1,0.5
			C120,96.8,120,95.1,119.4,94.2z"/>
		<path class="st4" d="M102.7,97.7c1-0.2,2.2,0,3.1-0.6c2.9-0.3,5.4,1,8.2,1.4c-2.3,0.4-4.6-0.1-6.9,0.5c0.4-0.6,1.1-0.5,1.9-0.8
			C106,96.9,102.9,98.6,102.7,97.7z"/>
		<path class="st15" d="M118.8,73.3c0.2-0.8,1.6-0.1,2,0.2c0.4,0.3,0.4,1.2,0,1.6c-0.8,0.8-0.6,1.8-0.7,2.7c-1-0.1-1.2,0.6-1.1,1.4
			c-0.1,0-0.2,0-0.3,0C118.4,76,119.9,78,118.8,73.3z"/>
		<path class="st10" d="M118.8,73.3c0.1,1.4,0.9,2.8,0,4c-0.3,0.3-0.1,0.7-0.2,1.1c-0.4,0.2-0.8,0.1-1.2,0.2
			c-0.1-1.4-0.2-2.7-0.2-4.1C117.8,74.1,118.3,73.7,118.8,73.3z"/>
		<path class="st6" d="M116.5,96.1c1.8,0.4,3.7,0.8,5.5,1.2c-2,0.5-3.9,0.9-5.9,1C116.6,97.6,116.4,96.8,116.5,96.1z"/>
		<path class="st7" d="M119,79.2c0-0.1,0-0.1,0-0.2c0.4,0.1,0.8,0.1,1.2,0.2c0.1,2-0.2,4-0.2,6C117.6,84.9,119.7,80.8,119,79.2z"/>
		<path class="st10" d="M117.8,60.4c-0.8-0.1-0.9-1.3-2.1-0.8c-1.2-0.5-0.1-0.8,0.1-1.3c0.6-0.1,1.2-0.1,1.7,0
			c0.5,0.1,0.3-0.2,0.4-0.4c0.5-0.2,1-0.2,1.6-0.2c0,0.4-0.6,0.5-0.3,0.9c0.2,0.2,0.5,0,0.7,0c0,0.1,0,0.3,0,0.4
			C119.1,59.7,117.5,59.1,117.8,60.4z"/>
		<path class="st6" d="M116.7,82.5c0.1,0,0.2,0,0.4,0c0,1.4,0,2.8,0,4.3c-0.7,0-1.4,0-2.1,0c0-0.4,0-0.8,0-1.2
			c0.5,0.1,1.3-2.1,1.3-2.6C116.3,82.7,116.4,82.5,116.7,82.5z"/>
		<path class="st9" d="M107.4,88.1c-2.2-0.5-4.4-1-6.6-1.5c0.8-0.2,1.6,0.3,2.4-0.2c2,0.2,4,0.8,6,1.2
			C108.7,88.2,108,87.9,107.4,88.1z"/>
		<path class="st15" d="M114.8,88.7c0.2,0.2,0.1,0.5,0.2,0.8c-0.6,0.3-0.7,1.1-1.3,1.4c-1.8-0.5,0-0.8-1.1-1.6
			c-0.5-0.6-1.5-0.6-1.2-1.6C112.5,87.9,113.6,88.6,114.8,88.7z"/>
		<path class="st6" d="M111.2,88.3c0.2,0.5,0.9,0.5,1.2,1c1.1,0.8-0.7,1,1.1,1.6c-0.5,0.7-1.1,1.2-1.8,1.7c-0.1,0-0.1,0-0.2,0
			C111.4,91.2,111.2,89.8,111.2,88.3z"/>
		<path class="st12" d="M111.2,88.3c0,0.8-0.2,1.6,0.2,2.4c-3,0.1-0.8-1.8-2.1-3.2c0.1-0.1,0.1-0.2,0.2-0.3c0.6,0,1.2,0.2,1.8,0.5
			C111.2,87.9,111.2,88.1,111.2,88.3z"/>
		<path class="st8" d="M97,107c0-0.5,0.8-0.8,0.2-1.4c-0.9-0.2-1.5-1.2-2.5-1.2c-0.1-0.2-0.3-0.2-0.4-0.2c0.3-1,1.2,0.5,1.8-0.2
			c0.8,0.2,1.3,0.7,1.9,1c0.9,0.4,0.6,1.2,0.5,1.8C98.3,107.6,97.5,106.8,97,107z"/>
		<path class="st15" d="M92.5,106.6c0,0.9,1.2,1,1.2,1.9c0.1,0.8,0.9,0.3,1.3,0.8c-1.1,0.3-2.2,0.2-3.3,0.1c0.3-0.5,0.8-0.2,1.2-0.3
			c1.7-0.7-1.9-0.6-2.3-0.4C91.2,107.8,91.7,107,92.5,106.6z"/>
		<path class="st7" d="M116.5,96.1c-0.1,0.7,0.1,1.5-0.4,2.1c-0.7,0.7-1.3-2.1-2.7-2.6C114.7,95.5,115.6,95.7,116.5,96.1z"/>
		<path class="st6" d="M119,79.2c0.6,1.6-1.4,5.7,1,6c-0.2,0.8-0.7,0.1-1,0.2c-0.8,0.2-0.1-5.4-0.3-6.2
			C118.8,79.2,118.9,79.2,119,79.2z"/>
		<path class="st14" d="M119.8,58.7c-0.2-0.1-0.6,0.2-0.7,0c-0.3-0.4,0.3-0.6,0.3-0.9c0.4-0.1,0.9,0.1,1.4-0.2c0.1,0,0.2,0,0.4,0
			c0,0.2,0.2,0.4,0.4,0.4c-0.4,0.6-1,1-1.7,1.2C119.8,59,119.8,58.9,119.8,58.7C119.8,58.7,119.8,58.7,119.8,58.7
			C119.8,58.7,119.8,58.7,119.8,58.7z"/>
		<path class="st7" d="M125.3,103.9c-0.9-0.9,0.1-0.9-0.1-2C126.9,101.7,126.7,103.7,125.3,103.9z"/>
		<path class="st12" d="M114.8,92.8c0.6,0.8,1.3,1.5,1.5,2.5C114.7,95.1,114.7,95.1,114.8,92.8z"/>
		<path class="st7" d="M105.2,94.5c0-0.1,0-0.1,0-0.2c0.5-0.2,0.9-0.5,1.3,0.2c0.8,0.6,2.3,0,2.8,1.5C108,95,106.5,95.2,105.2,94.5z
			"/>
		<path class="st14" d="M122.9,104.1c0.8-0.5,1.6-0.1,2.3,0c0.2,0.5-0.3,0.5-0.5,0.6C124.3,104.7,121.8,105,122.9,104.1z"/>
		<path class="st13" d="M123.9,108.8c1.1,0,2.2-1.7,2.9,0c-0.8,0.1-1.7,0.2-2.6,0.3C124.1,108.9,123.7,109.2,123.9,108.8z"/>
		<path class="st7" d="M111.6,92.6c0.1,0,0.1,0,0.2,0c0.1,2.2-0.5,1.7-2.3,1.3C110.5,93.6,111.5,93.8,111.6,92.6z"/>
		<path class="st6" d="M120.2,79.2c-0.4-0.1-0.8-0.1-1.2-0.2c0-0.7,0.3-1.3,1.1-1.2C120.2,78.3,120.2,78.7,120.2,79.2z"/>
		<path class="st6" d="M126.6,99.3c0.7-0.4,2.2-0.5,1.9,0.4C128.4,100.3,127.2,99.3,126.6,99.3z"/>
		<path class="st10" d="M125.1,101.9c-0.7,0-0.2,0.7-0.8,1c0.1-0.6-0.3-1.3,0.6-1.5c0.2-0.1,0.8-0.6,0.8,0.3
			C125.4,101.8,125.3,101.9,125.1,101.9z"/>
		<path class="st15" d="M96.1,104.1c-0.5,0.4-0.9,0-1.4-0.2c0.3-0.4,0.8-0.1,1.2-0.4C96.1,103.6,96,103.9,96.1,104.1z"/>
		<path class="st15" d="M92.2,131.1c-0.1-0.5,0.3-0.7,0.4-1.1c1-0.9,1.9-1.9,2.5-3.1c0.9-0.5,1.8-1.1,2.3-2.1
			c0.7,0.3,1.3-0.2,1.9-0.1c0.8,0.3,1.6,0,2.4,0.2c-0.1,0.3-0.4,0.5,0,0.8c0.3,0.2,0.5-0.1,0.6-0.2c0.3-0.3,0.7-0.4,0.9-0.8l0,0
			c0.2,0,0.3,0,0.4-0.2l0,0c0.2,0,0.3,0,0.4-0.2l0,0c0.3,0,0.6,0,0.8-0.4l0,0c0.2,0,0.3,0,0.4-0.2c0.2,0,0.3,0,0.4-0.2l0,0
			c0.2,0,0.3,0,0.4-0.2l0,0c0.6,0.1,1-0.5,1.5-0.4c0.1,0.2,0.1,0.4,0.2,0.6c-0.2,0-0.3,0-0.4,0.2l0,0c-0.2,0-0.3,0-0.4,0.2
			c-0.1,0-0.3,0-0.4,0.2l0,0c-0.2,0-0.3,0-0.4,0.2l0,0c-0.2,0-0.3,0-0.4,0.2l0,0c-0.2,0-0.5,0-0.6,0.2l0,0c-0.3,0-0.6,0.1-0.8,0.4
			l0,0c-0.1,0.1-0.1,0.1-0.2,0.2l0,0c-0.2,0-0.3,0-0.4,0.2l0,0c-0.7-0.1-1.2,0.2-1.2,1c-0.7,0.1-0.7,1.3,0.1,1c0-0.4-0.1-0.7-0.1-1
			c0.1,0,0.3,0,0.4,0c0.2,0.8,0.5,1.3,1.4,0.6c1.1-0.3,2.3-0.6,3.3-1.4c0.2,0,0.4-0.1,0.6,0c0,0.7,0,1.4,0,2.2
			c0.4-0.1,0.6-0.3,1-0.2c0,0.6,0.9,0.4,0.7,0c-0.2-0.3-0.5,0.1-0.7,0c0.2-1.1,0.9-0.2,1.4-0.4c0.2,1.2,0.1,2.4,0.4,3.5
			c0,0.1-0.1,0.2-0.1,0.4C104.8,132.5,98.2,132.8,92.2,131.1z"/>
		<path class="st5" d="M110.9,131c0.2-1,2.4-1.8,1.3-2.9c-0.2-0.2-0.2-0.4-0.2-0.6c0,0,0.1-0.1,0.1-0.1c0,0-0.1,0.1-0.1,0.1
			c-0.8-0.1,0.2-0.9,0-1.4c1.7,0.3,1.7,0.3,1.7,1.9c0,0.9,0.1,1.7,0.1,2.6C112.9,130.6,111.9,131.1,110.9,131z"/>
		<path class="st12" d="M136.2,111.1c-1.1-1.7-2.7-2.9-3.7-4.7c6.8,1.9,13.6,3.6,20.4,5.4c0.1,0.9,1,2.3,0.5,3.1
			c-0.6,0.6-1.7-1.2-2.7,0c-3.6-1-7.1-2-10.7-3c-0.5-0.1-1-0.6-1.5-0.1C137.8,111.5,136.9,111.6,136.2,111.1z"/>
		<path class="st2" d="M114.1,120.5c0.7-0.3,1.5-0.1,2.2-0.7c2.5-0.2,5.2,2.5,7.1,2c0.5-0.3,0.9-0.2,1.3,0.2c0,0.6-0.1,1.1-0.1,1.7
			c-0.3,0-0.7,0.1-1,0.3c-0.5,0-1,0-1.4,0.3c-2.1,0.3-4.2,0.5-6.3,0.9c-1.5,0.2-2.7-0.5-4-0.9c2.6-0.9,5.1-0.6,7.9-1.6
			C117.7,121.8,116.1,121.4,114.1,120.5z"/>
		<path class="st9" d="M136.2,111.1c5.4,1.8,11,3.1,16.5,4.7c0,0.1,0,0.1,0,0.2c-1.5,0.9-3.1,0.6-4.7,0.1c-4.8-1.7-9.9-2.9-14.6-4.5
			c0.5-0.6,1.3-0.5,2-0.7C135.6,111.2,135.9,111.1,136.2,111.1z"/>
		<path class="st7" d="M152.7,116c0-0.1,0-0.1,0-0.2c0.2-0.5-1.6-0.6-1.9-0.8c1-1.2,2,0.6,2.7,0c0.5-0.8-0.5-2.1-0.5-3.1
			c2.6,0.7,5.3,1.5,7.8,2.5C158.1,114.9,155.4,115.7,152.7,116z"/>
		<path class="st2" d="M134.2,122c-2.9,0.6-6,0.8-8.9,1.6c-0.6-0.4,0-1.2-0.5-1.6c0-0.7,0.9-0.2,1.1-0.7c0.1-0.5-0.5-0.4-0.6-0.7
			c1.8,0.4,3.7,0.7,5.6,0.2c0.9-0.2,3.1-0.5,3.8,0.1C134.8,121.4,134.1,121.2,134.2,122z"/>
		<path class="st2" d="M166.5,115c-0.2,0.6,0.5,1.1,0.3,1.7c0,0.2,0.4,0.2,0.7,0.2c0.5,0.2,1.2,0.2,1.5,0.8c0.2,0.4,0.4,0.9-0.5,1
			c-0.5,0-1,0.1-1.5,0.4c0.1-1.9-1.8-1.3-2.8-1.9c2.6-0.1,1.2-0.2,1.9-2.2C166.3,115,166.4,115,166.5,115z"/>
		<path class="st15" d="M165.3,117.1c-0.2,0-0.5,0-0.7,0c-0.3-0.7-0.3-2.1,0.7-1.9C165.3,115.8,165.3,116.5,165.3,117.1z"/>
		<path class="st14" d="M124.9,122c0.5,0.4-0.1,1.2,0.5,1.6c-0.6,0.5,0.1,1.5-0.9,1.7c0.1-0.5,0.7-1,0.1-1.6c0-0.6,0.1-1.1,0.1-1.7
			C124.8,122,124.8,122,124.9,122z"/>
		<path class="st7" d="M165.3,117.1c0-0.6,0-1.3,0-1.9c0.1,0,0.3,0,0.4-0.1c0.1,0.4-0.1,1,0.2,1.4C166,117,165.8,117.2,165.3,117.1z
			"/>
		<path class="st15" d="M165.9,116.5c-0.3-0.4-0.1-0.9-0.2-1.4c0.1-0.2-0.1-0.6,0.3-0.7c0.3,0,0.1,0.3,0.2,0.5
			C166.1,115.5,165.9,116,165.9,116.5z"/>
		<path class="st9" d="M74.8,79.9c0.2,3.9,0,8,0.4,11.8c0.1,1.6-0.7,3.2,1.6,3.2c0.6,0.1,1.3-0.4,1.6-0.1c0.5,0.9,2.7,0.2,2.1,1.4
			c-0.5-0.1-1-0.2-1.6-0.2c-0.7-0.8-1.7-0.4-2.6-0.5c-1-0.1-1.1,0.1-0.8,1.2c0,1.2-0.3,2.5,1.2,2.9c-0.2,0.5-0.7,0.9,0,1.4
			c0.1,0.5,0.2,0.9,0.2,1.4c-0.8,0.4,0.1,2.2-1,2.6c-0.4,0.2-0.4-0.5-0.7-0.7c-0.2-1.2-0.5-2.3-1.2-3.3c0.2-0.2-0.1-0.3-0.2-0.4
			c0,0,0,0,0,0c0.8-0.3-1.6-4.7-2.3-5c-0.4,0-0.5,0.5-0.8,0.6c-1.5-5.2,4.3-3.7,2.4-6.5c0.3-0.4,0.4-0.8,0.4-1.3c0-2.5,0-5,0-7.5
			c0.9,0,0.5-1.3,1.3-1.5C74.8,79.7,74.8,79.8,74.8,79.9z"/>
		<path class="st6" d="M57.3,106.2c-0.1,2.5,0.1,4.9,0.2,7.4c0,0.2,0,0.5,0.2,0.6c0,1-0.8,2-2.7,3.5c-0.3,0-8,1.3-8,1.3l-0.4-10.4"
			/>
		<path class="st7" d="M78.7,112.1c1,0,8-2.1,7.6-0.6c-2.5,2.4-4.8,5.1-7.4,7.5C78.9,116.7,78.8,114.4,78.7,112.1z"/>
		<path class="st2" d="M67.2,104.6c-1.5,0.3-3.1,0.4-4.6,0.8c-3-0.2-6.2-0.6-9.3-0.6c-0.3,0-0.8,0.2-0.9-0.4
			c4.2-0.6,8.2-2.1,12.4-2.1c0.4,0.5,0.9,0.8,1.5,1.1C66.5,104,67.2,104,67.2,104.6z"/>
		<path class="st10" d="M73.1,89.9c2,2.8-3.9,1.3-2.4,6.5c0.1,1.5,0.2,2.9,0.2,4.4c-0.2-0.1-0.2-0.4-0.5-0.3
			c-0.3,0.1-0.1,0.3-0.1,0.5c0.1,1.8-0.8,1-0.5,2.6c-0.1,0-0.3,0-0.4,0c0-2-0.3-3.9-0.1-5.9c-0.1-1.2,0.8-7.5-0.7-7.3
			c-0.1-0.3-0.3-0.5-0.4-0.1c-0.1,0-0.1-0.1-0.2-0.1c0.1-0.9-1.3-0.3-0.4-1.3c0.6,0.2,1.1,0.4,1.7,0.3c0.1,0.3,0.2,0.7,0.2,1
			c0,0.2-0.1,0.5,0.2,0.7c0.4,0.2,0.4-0.3,0.7-0.3c0.2,0.6,0.5,0.1,0.7,0c0.4,0.2,0.5,0.8,1.1,0.9c-0.1-0.5,0.3-1.2-0.5-1.3
			c0.1-0.1,0.1-0.1,0.2-0.2C72.3,89.9,72.7,89.9,73.1,89.9z"/>
		<path class="st6" d="M61.6,105.5c0.3,0,0.7,0,1,0c-1.8,2.8-3.6,5.6-4.9,8.8c-0.2-0.2-0.2-0.4-0.2-0.6c-0.1-2.5-0.3-4.9-0.2-7.4
			C58.8,106,60.2,105.7,61.6,105.5z"/>
		<path class="st14" d="M69.2,101c0.4,0.8,0.1,1.7,0.2,2.6c-0.1,0.1-0.1,0.3-0.2,0.4c-1,0-1.9-0.5-2.9-0.4c-0.5-0.3-1.1-0.7-1.5-1.1
			c0.7-0.3,2-2.4,2.4-2C67.8,101.1,68.6,100.7,69.2,101z"/>
		<path class="st11" d="M74.1,101.2c0.7,1,0.9,2.2,1.1,3.3c-1.5-0.5-0.7,0.6-1.6,0.4c-0.4-0.1,0.1-0.6-0.3-0.8
			c0.6-0.6-0.2-0.4-0.4-0.6c-0.1-0.1-0.2-0.1-0.2-0.2c1-0.7,0.4-1.5,0.2-2.3c0.3-0.1,0.6-0.2,0.9-0.3
			C74,100.9,74.2,100.9,74.1,101.2C73.4,101.2,74,101.8,74.1,101.2z"/>
		<path class="st7" d="M72.9,101c0.2,0.8,0.8,1.6-0.2,2.3c-0.5,0.3-1.1,1.2-1.6,1.1c-0.4-0.1-0.1-0.6-0.2-0.9c0.5-1,1.2-1.8,1.4-2.9
			C72.8,100.3,72.7,100.9,72.9,101z"/>
		<path class="st11" d="M72.3,100.6c-0.2,1.1-0.9,1.9-1.4,2.9c-0.7,0-1.1,1-1.1-0.4c2-0.1,0.9-2.7,1.2-4.1c0.3,0.1,0.7,0.1,1,0.2
			C71.9,99.7,71.8,100.3,72.3,100.6z"/>
		<path class="st15" d="M77,102.6c-0.1-0.5-0.2-0.9-0.2-1.4c0.8,0.1,2.3,0.7,2.4-0.6c0.2,0.1,0.4,0.1,0.6,0.2c0,2.5-1.5,1-2.3,1.9
			C77.2,102.7,77.1,102.7,77,102.6z"/>
		<path class="st4" d="M75.8,115.8c1.1-0.3,0.1-1.5,1-1.6c0.5,0,0.3,0.5,0.4,0.8C77.3,116.6,77,116.5,75.8,115.8z"/>
		<path class="st13" d="M66.4,103.5c1-0.1,1.9,0.4,2.9,0.4c-0.5,0.6-1.4,0.5-2,0.7C67.2,104,66.5,104,66.4,103.5z"/>
		<path class="st6" d="M68.1,105c0.4,1.3-0.4,1.7-1.2,2.1C67.3,106.4,67.7,105.8,68.1,105z"/>
		<path class="st3" d="M66.9,113.9c-0.3-0.3-0.5-1,0.1-0.8C67.4,113.4,67,113.7,66.9,113.9z"/>
		<path class="st3" d="M68.3,111.4c0,0.1,0,0.1-0.1,0.2c-0.2,0-0.2-0.1-0.1-0.2C68.2,111.4,68.3,111.4,68.3,111.4z"/>
		<path class="st3" d="M71.5,113.2c0-0.1,0.1-0.4,0.3-0.2C71.8,113.2,71.7,113.2,71.5,113.2z"/>
		<path class="st11" d="M69.2,59.9c0.1,0,0.1,0,0.2,0c0.7,1.2-0.2,2.4,0.9,2.5c-0.2,5.5-0.1,10.9-0.2,16.4c-0.3-0.2-0.7-0.1-1,0
			c-0.1-2.8,0.1-5.6-0.2-8.4c0-0.4-0.1-0.7-0.4-0.9c0.2,0,0.4-0.1,0.4-0.3c-0.1-2.4-0.4-4.8,0.2-7.2c-2.3,0.6-2.3,0.6-2.7-0.8
			c0-0.2,0.1-0.3,0.2-0.5C67.3,60.4,68.9,60.8,69.2,59.9z"/>
		<path class="st12" d="M32.8,67.7c-0.3,1.5,0.1,3.1-0.4,4.6c0.7,0.5-0.2,1.1,0.2,1.7c0.3,0.4-0.6,0.9,0.1,1.2
			c-0.5,0.9,0.1,1.9-0.2,2.9c-0.1,0.3-0.1,1,0,1.3c0.3,0.5,0,0.7-0.2,1c-0.4-0.2-0.8-0.3-1.3-0.2c0-0.2,0-0.5,0-0.7c0,0,0,0,0,0
			c0.2,0,0.7,0,0.3-0.4c-0.9-0.7,1.1-1.1-0.2-1.2c-0.1-0.2-0.1-0.4-0.3-0.5c0.2-0.3,1.4,0.1,0.4-0.8c-0.2-0.1-0.1-0.4-0.1-0.6
			c0,0,0,0,0,0c1.4-0.1-0.2-0.5,0.3-1c0.8-0.7-0.7-0.2-0.3-1.3c0,0,0,0,0,0c1.1-0.1-0.3-0.3,0-1.2c0,0,0,0,0,0
			c0.1,0,0.2-0.1,0.2-0.1c-0.4-0.7,0.2-1.5-0.4-2.1l0,0.1c0,0,0-0.1,0-0.1c0.8-0.1,0-0.7,0-1.2c0,0,0,0,0,0c1,0.1,0-0.7,0-1.2
			c0,0,0,0,0,0c1.1-0.2-0.1-0.6,0.1-0.9c0.6,0,1.1,0.1,1.5,0.5C32.8,67.5,32.8,67.6,32.8,67.7z"/>
		<path class="st10" d="M69,78.3c0,0.5,0,1,0,1.5c-0.7,0.1-1.1-0.7-1.9-0.6c-0.6-0.1-0.7,0.3-0.7,0.8c0,1.4,0.1,2.7,0.1,4.1
			c-0.5,0.1-1-0.1-1.5-0.2c0-1.2-0.1-2.4,0-3.5c0.1-0.9,0.4-1.8,0-2.7C66.4,77.8,67.7,78,69,78.3z"/>
		<path class="st13" d="M65.1,77.6c0.5,0.9,0.1,1.8,0,2.7c-0.1,1.2,0,2.4,0,3.5c-0.4,1.5-0.1,3.2-0.2,4.7c-0.1,0-0.2,0-0.3,0
			c-0.3-3.7-0.7-7.4-0.4-11.1C64.5,77.4,64.8,77.4,65.1,77.6z"/>
		<path class="st12" d="M68.6,67.3c0.1,0.4,0.4,2.3-0.2,2.2c-1-0.5-4.4-0.4-3.5-1.9C66.2,67.6,67.4,67.4,68.6,67.3z"/>
		<path class="st16" d="M45.3,65C45.3,65,45.3,65,45.3,65C45.3,65,45.3,65,45.3,65C45.2,65,45.3,65,45.3,65z"/>
		<path class="st16" d="M34,63C34,63,34,63,34,63"/>
		<path class="st2" d="M32.5,109.3c0.1,0.8,0.5,0.6,1,0.4c3.2-1.1,6.3-2.4,9.5-3.3c0.4,1,2.8,1.1,3.7,1.9c0,0.1,0,0.1,0,0.2
			c-5,1.1-9.7,4-14.9,3.8c-0.1-0.4,0.3-0.5,0.3-0.9c0.3-0.2-0.1-0.5,0-0.7C32.3,110.3,31.9,109.7,32.5,109.3z"/>
		<path class="st12" d="M32.5,109.3c-0.6,0.4-0.2,1-0.3,1.5c0,0.2,0.3,0.5,0,0.7c-0.3-0.2-0.6-0.4-1-0.6c0-0.3,0-0.5,0-0.8
			c0.3-0.3,0.3-0.5,0-0.8c0-0.3,0.1-0.6-0.2-0.8c0-0.6-0.2-1.2,0.2-1.7c0.5-0.5,0.5-2.3,0-3c-0.1-0.6,0.7-1.5-0.3-1.9
			c0.1-0.2,0.3-0.3,0.3-0.6c0.9-0.3,1.1-1.4,1.9-1.9c0.2-0.1,0.1-0.4,0-0.5c-0.4-0.6-1,0.3-1.5,0.5c-0.9-5.9,0.1-12.3-0.6-18.3
			c0.5,0,0.9,0,1.4,0c0,5.7,0,11.5,0,17.3c0.6-0.1,0.9-0.6,1.3-0.8c0.2,0.5-0.4,1.3,0.4,1.6c-1.4,1.6-1.8,1.9-1.7,4.1
			C32.6,105.4,32.6,107.4,32.5,109.3z"/>
		<path class="st1" d="M21.8,111c0.1-0.2,0.3-0.4,0.4-0.5c0.4,0.1,0.5-0.2,0.7-0.4c1.9-1.5,3.4-3.4,5.1-5c0.4-0.4,0.7-1,1.4-1
			c0,2.1,0.1,4.3,0,6.4c-1.1,0-2.2,0.1-3.2,0.3c-0.5,0.1-1.1-0.2-1.5,0.4c-1-0.4-1.9,0-2.9,0C21.9,111.2,21.8,111.1,21.8,111z"/>
		<path class="st2" d="M24.8,111.3c0.3-0.7,1-0.4,1.5-0.4c1.1-0.2,2.1-0.4,3.2-0.3c0.1,3.1-3,1.6-4.7,1
			C24.8,111.4,24.8,111.4,24.8,111.3z"/>
		<path class="st15" d="M29.6,109.3c-0.1-0.5-0.1-0.9,0-1.4c0.6,0,0.9,0.6,1.5,0.6c0.2,0.2,0.1,0.5,0.2,0.8c-0.3,0.3-0.3,0.5,0,0.8
			c0.1,1,0,1.6-1.1,1.5C29.3,111.5,31.3,109.8,29.6,109.3z"/>
		<path class="st2" d="M21.8,111c0,0.1,0.1,0.2,0.1,0.3c-0.2,0.4,0.1,0.4,0.4,0.4c0,0.8,2.8,1.9,0.8,1.9c-0.9-0.6-1.8-1.2-2.7-1.8
			C20.6,111.2,21.4,111.5,21.8,111z"/>
		<path class="st13" d="M22.3,111.7c-0.2-0.1-0.5,0-0.4-0.4c1,0,1.9-0.4,2.9,0c0,0.1,0,0.1,0,0.2C24,111.9,23.1,111.5,22.3,111.7z"
			/>
		<path class="st11" d="M165.6,121.7c-0.4-0.4-1.2-0.5-1.2-1.3c0-0.4,0-0.6,0.4-0.8c-0.8,0.1-0.5-1.2-1.4-1
			c-0.3-0.4-0.8-0.7-0.1-1.1c0.2,0.8,1.9,1.1,2.6,1.3c-0.1,0.3-0.2,0.6-0.1,0.9c-0.2,0.1-0.5,0.1-0.7,0.5c0.3,0.2,0.6,0.3,0.9,0.5
			C166.2,121.1,166.1,121.5,165.6,121.7z"/>
		<path class="st10" d="M166,118.7c-0.7-0.2-2.4-0.5-2.6-1.3c0.3-0.1,0.6-0.2,0.9-0.2c1.2,0.6,3.1,0.1,2.8,2.1
			C166.7,119.2,166.4,118.7,166,118.7z"/>
		<path class="st2" d="M46.8,108.6c-0.9-0.8-3.3-1.1-3.7-2.1c3.1-0.7,6.2-1.3,9.4-1.9c0.1,0.5,0.5,0.4,0.9,0.4
			c2.7,0.1,5.6,0.1,8.3,0.6C56.6,106.2,51.8,107.7,46.8,108.6z"/>
		<path class="st9" d="M124.5,125.3c0.9-0.1,0.3-1.1,0.7-1.5c1,1.1,2.5,1.6,4,1.4c-1.8,0.3-3.5,1.3-5.3,0.4
			C124.1,125.6,124.3,125.5,124.5,125.3z"/>
		<path class="st9" d="M128.2,128.4c-0.9,0.2-1.9,0.4-2.8,0.6c-0.2-0.1-0.3-0.1-0.5-0.2c0.9-0.8,0-0.3,0-1.2c1-0.2,2,0.3,3,0.2
			C127.9,128.1,128.1,128.2,128.2,128.4z"/>
		<path class="st5" d="M124.9,128.8c0.2,0.1,0.3,0.1,0.5,0.2c-0.2,0.5,0.5,1.4-0.6,1.5c-1-0.4-1.5-1-1.2-2.1
			C124.1,128.6,124.5,128.7,124.9,128.8z"/>
		<path class="st14" d="M129.2,125.3c-0.9,0.1-1.7,0-2.5-0.4c0.8-0.3,1.6-0.7,2.5-0.8c0.2,0,0.7-0.4,0.7,0.2
			C130,125.2,129.7,125,129.2,125.3z"/>
		<path class="st10" d="M128.2,128.4c-0.4-0.4-0.2-1-0.2-1.6c0.5,0,1.6-0.7,1.7,0.2C130,128.3,129.3,128.3,128.2,128.4z"/>
		<path class="st7" d="M127.6,124.5c-1.3,0.7-1.5,0.1-2.4-0.7c0-0.1,0.1-0.1,0.1-0.2c0.7-0.3,1.4-0.4,2.1-0.5
			C127.6,123.6,127.3,124.1,127.6,124.5z"/>
		<path class="st7" d="M128,126.9c0,0,0,0.1,0,0.1c-0.6,0.2-1.4-0.1-1.9,0.6c-0.4,0-0.8,0-1.1,0.1c0.1-0.5,0.5-1,0.2-1.5
			c0.2,0,0.4,0,0.7-0.1C126.4,126.8,127.5,126.1,128,126.9z"/>
		<path class="st5" d="M84.4,113.5c0.6-0.7,1.2-1.4,1.9-2c0.6,0.3,0.6,0.9,0.7,1.4c0.2,0.8,0.8,1,1.4,1.1c0.8,0.2,0.6-0.6,0.8-1
			c0.1-0.2,0.1-0.5,0.2-0.7c3.4,1,6.9,1.9,10.1,3.2c-0.8,1.6,1.7,2.4,1,4.3c-0.5,0.1-1.2-0.1-1.5,0.6c-0.3,0.1-0.4,0.4-0.4,0.7
			c-2.6-0.9-5.1-1.8-7.7-2.7c-0.3-0.1-0.5-0.3-0.8-0.1c-0.6-1.2-2.7-0.5-2.8-2.1c-0.1-0.7-0.9-1.3-0.5-2.1c0.1-0.1-0.3-0.5-0.5-0.3
			C85.5,114.3,85,113.7,84.4,113.5z"/>
		<path class="st5" d="M86.9,122c0.2,0.2,0.2,0.3,0,0.4C86.8,122.3,86.7,122.2,86.9,122z"/>
		<path class="st1" d="M88.1,126.7c-0.1,0-0.1,0.1-0.2,0.1C87.9,126.7,87.9,126.7,88.1,126.7z"/>
		<path class="st11" d="M125.2,126.1c0.4,0.7-0.5,1.3-0.1,1.9c0.6,0.4,0,0.5-0.1,0.7c-0.4-0.1-0.8-0.3-1.2-0.4
			c-0.1-0.2-0.2-0.4-0.4-0.6c-0.3,0-0.5,0-0.8,0c0-0.1,0-0.3,0-0.4c0.3-0.2,0.1-0.6,0.4-0.8c0.5-0.6,0.3-1.3-0.5-1.5
			c0-0.3-0.1-0.5-0.1-0.8c0.4-0.4,0.9-0.3,1.4-0.3C123.7,126.2,123.1,125.3,125.2,126.1z"/>
		<path class="st5" d="M122.9,126.7c-0.3,0.2-0.1,0.6-0.4,0.8c-0.9,0.5-0.4-0.3-0.4-0.9c0.1-0.1,0.2-0.2,0.2-0.3
			C122.6,126.3,122.9,126.3,122.9,126.7z"/>
		<path class="st5" d="M122.5,127.8c0.1,0,0.1,0,0.2,0c-0.1,0.1-0.1,0.2-0.3,0.1C122.5,127.9,122.5,127.9,122.5,127.8z"/>
		<path class="st5" d="M123.3,127.8c0.1,0.1,0.1,0.1,0.2,0.2C123.4,128,123.4,127.9,123.3,127.8z"/>
		<path class="st10" d="M114.1,120.5c0.9,0.4,1.8,0.8,2.8,1.1c-0.4,1.3-2-0.5-2.1,2.1c-0.9,0.3-1.9,0.1-2.8,0.6
			c-0.6,0-0.7,0.8-1.3,0.8c-1.2-1-1.9,0.3-3,0.4c0.6-0.8-0.2-1.2-0.8-1.6c0-0.1,0-0.1,0-0.2c0,0,0,0,0,0c0.2,0,0.3,0,0.4-0.2
			c0,0,0,0,0,0c0.2,0,0.3,0,0.4-0.2c-0.1-0.2-0.1-0.4-0.2-0.6c0.1-0.5,0.1-0.6-0.2-0.4c-0.5,0.2-1,0.3-1.3,0.8c-0.1,0-0.3,0-0.4,0.2
			c0,0-0.1,0-0.2,0c-0.7-2.2-1.6-3.8-0.7-6.2C107.7,118.4,111,119.4,114.1,120.5z"/>
		<path class="st11" d="M112,126.1c0.2,0.5-0.8,1.3,0,1.4l0,0c0,0.2,0,0.5,0.2,0.6c0.9,0.9-0.7,1.8-1.2,2.5
			c-0.3-1.7-0.3-3.4-0.3-5.1C111.1,125.6,111.6,125.8,112,126.1z"/>
		<path class="st5" d="M110.7,125.5c0,0.1,0,0.3,0,0.4c-0.8-0.1-1.6-0.4-2.5-0.4c0.8-0.5,1.5-1.1,2.5-0.4
			C110.7,125.2,110.7,125.4,110.7,125.5z"/>
		<path class="st3" d="M122.9,126.7c0-0.4-0.3-0.4-0.6-0.4c0-0.4,0-0.8,0-1.1C123.2,125.3,123.5,126.1,122.9,126.7z"/>
		<path class="st2" d="M166,118.7c0.5,0,0.7,0.5,1.1,0.5c0.3,0.4,0.8,0.2,1.1,0.7c-0.4,0.1-0.7,0.2-1.1,0.3c-0.1,0-0.1,0-0.2,0
			c-0.1-0.6-0.7-0.5-1.1-0.6C165.8,119.3,165.9,119,166,118.7z"/>
		<path class="st3" d="M166.9,120.2c0.1,0,0.1,0,0.2,0c0,0.7-0.4,0.9-1,0.9C166,120.3,166.2,120.3,166.9,120.2z"/>
		<path class="st12" d="M75,65.2c0.1,4.8,0.1,9.6-0.2,14.4c-0.8,0.2-0.4,1.5-1.3,1.5c-0.1-1.1-0.1-1.1-1.6-0.9
			c-0.6,0.3-0.4,0.8-0.3,1.2c0.6,2.4,0.2,4.8,0.1,7.2c0,0.4,0.1,0.6,0.4,0.8c-0.2,0.1-0.2,0.3-0.2,0.4c-0.2,0.2-0.5,0.4-0.8,0.6
			c-0.2,0.1-0.5,0.6-0.7,0c-0.3-9.7-0.6-19.4-0.1-29.2c1-0.5,2.1-0.8,3.2-1.2c1.9,1.2,1.4,2.6,1.4,4.5C74.6,64.6,74.6,65.2,75,65.2z
			"/>
		<path class="st10" d="M73.6,60.1c-0.9,0.3-1.8,0.7-2.7,1c-1-1,0.1-1.3,1-1.5c0.6,0.6,1.3,0,1.9,0.4C73.7,59.9,73.7,60,73.6,60.1z"
			/>
		<path class="st2" d="M85.7,61.3c-0.3,0.3-0.5,0.3-0.8,0C85.2,61,85.5,61,85.7,61.3z"/>
		<path class="st5" d="M69.1,113.1c0-0.3,0.3-0.1,0.2,0.1C69.2,113.1,69.1,113.1,69.1,113.1z"/>
		<path class="st5" d="M70.6,114.1c0,0.1,0,0.1-0.1,0C70.5,114,70.6,114.1,70.6,114.1z"/>
		<path class="st4" d="M111.6,62.1c-0.2-0.3-0.2-0.6-0.2-1c0.5-0.5,1.1-0.8,1.5-1.4c2.2-0.6,0.5-0.7,0.4-1.4c0.7,0,1.3,0.1,1.9-0.4
			c0.2,0.1,0.4,0.3,0.5,0.5c-0.2,0.4-1.3,0.8-0.1,1.3c0,1.3-0.2,2.5-0.1,3.8c0,0.9,0,1.8,0,2.7c-0.5,2-0.2,4.3-0.4,6.4
			c-0.6,0-1.2,0-1.7,0c-0.5-0.4-0.7,0-0.9,0.3c-0.6,0.3-0.7,1-1.3,1.2"/>
		<path class="st12" d="M111.4,71c-0.1,2.5-0.5,5-0.4,7.5c-0.2,0-0.4,0-0.6,0.1c-0.2-0.4-0.7-0.2-1-0.4c0.1-5.9-0.2-11.8,0.2-17.7
			c0.3-0.3,0.3-0.7,0.8-0.8c0.1,0.6,0.5,1,1,1.3c0,0.3,0,0.7,0.2,1"/>
		<path class="st6" d="M115.3,57.9c-1.2,0.8-2.6,0.1-3.8,0.2c0.8-1.1,2.7-0.4,3.9-0.6C115.3,57.7,115.3,57.8,115.3,57.9z"/>
		<path class="st6" d="M111.4,61.1c-0.5-0.3-0.9-0.7-1-1.3c0.8,0,1.6,0,2.5,0C112.6,60.3,111.9,60.6,111.4,61.1z"/>
		<path class="st15" d="M31.3,73.6c-0.3,1.1,1.1,0.6,0.3,1.3c-0.5,0.5,1.1,0.9-0.3,1c-0.2-0.3-0.6-0.1-0.9-0.3
			c-0.4-0.4,0.9-0.5,0.2-1.2C30.1,73.9,30.8,73.6,31.3,73.6z"/>
		<path class="st10" d="M32.4,81.1c-0.5,0-0.9,0-1.4,0c-0.4-0.4-0.4,0.4-0.8,0.2c0-0.4,0.5-0.7,0.2-1.2c0.7,0,1.3-0.1,1.9,0.2
			C32.5,80.6,33.1,80.8,32.4,81.1z"/>
		<path class="st15" d="M31.2,70.2c0.6,0.6,0,1.4,0.4,2.1c-0.1,0-0.2,0.1-0.2,0.1c-1-0.4-1-0.4-0.4-1.2c-0.1-0.3-0.6-0.1-0.5-0.4
			C30.5,70.4,30.8,70.2,31.2,70.2z"/>
		<path class="st14" d="M31.3,77.8c1.3,0.1-0.8,0.6,0.2,1.2c0.4,0.3-0.1,0.3-0.3,0.4c-1.1-0.3-0.5-0.9-0.3-1.5
			C30.9,77.9,31.1,77.8,31.3,77.8z"/>
		<path class="st15" d="M31.3,75.9c0,0.2-0.1,0.5,0.1,0.6c1,0.7,0,0.5-0.3,0.7C30.3,76.3,30.3,76.2,31.3,75.9z"/>
		<path class="st15" d="M31.3,72.4c-0.3,0.8,1.1,1.1,0,1.2c-0.2-0.3-0.9,0-0.8-0.6C30.5,72.6,30.8,72.3,31.3,72.4z"/>
		<path class="st15" d="M31.2,67.8c0,0.4,1,1.3,0,1.2C30.3,68.2,30.3,68.2,31.2,67.8z"/>
		<path class="st15" d="M31.2,69c0,0.4,0.9,1.1,0,1.2C30.3,69.4,30.3,69.4,31.2,69z"/>
		<path class="st15" d="M31.3,67c-0.2,0.3,1,0.7-0.1,0.9c0-0.5-0.7-0.1-0.6-0.6C30.6,66.9,31,66.9,31.3,67z"/>
		<path class="st14" d="M31.1,80.1c-0.2,0-0.4,0-0.6,0c0-0.5,0.1-0.8,0.6-0.8C31.1,79.7,31.1,79.9,31.1,80.1z"/>
		<path class="st15" d="M31.3,77.8c-0.6,0.1-0.7,0.3-0.6-0.4c0.1,0,0.2-0.1,0.3-0.1C31.1,77.4,31.2,77.6,31.3,77.8z"/>
		<path class="st14" d="M30.6,77.4c0,0.2,0,0.3,0,0.5C30.2,77.9,30.3,77.4,30.6,77.4z"/>
		<path class="st6" d="M30.4,81.3c0.1,0,0.2-0.1,0.3-0.2c0.7-0.6,0.6,1.3,0.6,1.6c0.3,5.5-0.3,11.3,0.4,16.7
			c-0.2,0.3-0.5,0.7-0.8,0.5c-0.5-0.3,0.1-1.8-0.3-2.3C30.6,92.3,30.4,86.8,30.4,81.3z"/>
		<path class="st5" d="M30.5,96.3c0.2,0.3,0.2,0.7,0,1C30.1,97,30.1,96.6,30.5,96.3z"/>
		<path class="st5" d="M30.3,97.7C30.2,97.6,30.2,97.6,30.3,97.7C30.2,97.6,30.2,97.6,30.3,97.7C30.3,97.7,30.3,97.7,30.3,97.7z"/>
		<path class="st12" d="M92.8,125.3c0.7-0.1,1.4-0.4,2.1-0.3c-0.1,0.7,0.2,1.3,0.2,1.9c-0.7,1.2-1.5,2.2-2.5,3.1
			c-0.9-1.3,0.1-3.1-0.8-4.5C92.1,125.4,92.4,125.3,92.8,125.3z"/>
		<path class="st10" d="M31.2,101.4c-0.1,0.8-1.4,0.8-1.2,1.8c-0.1,0.2-0.2,0.5-0.5,0.5c-1,0-1.6,1-2.6,1c0,0-0.1-0.1-0.1-0.1
			c0.3-0.4,0.7-0.7,1.2-1C29.3,103.1,29.8,101.3,31.2,101.4z"/>
		<path class="st10" d="M26,105.5c0.1-0.3,0.4-0.4,0.4-0.8c0.2,0,0.3-0.1,0.5-0.1c0,0,0.1,0.1,0.1,0.1
			C26.8,105.2,26.5,105.5,26,105.5z"/>
		<path class="st8" d="M26,105.5c0.5,0,0.8-0.3,1-0.7c1,0,1.6-1.1,2.6-1c0,0.1-0.1,0.3-0.1,0.4c-0.7,0.1-1,0.6-1.4,1
			c-1.7,1.6-3.3,3.5-5.1,5c-0.2,0.2-0.4,0.5-0.7,0.4c0.1-0.2,0.2-0.5,0.2-0.7c0.8-0.3,3.3-3.1,2.9-3.7
			C25.6,105.8,25.8,105.7,26,105.5z"/>
		<path class="st10" d="M25.4,106c0.4,0.6-2.1,3.4-2.9,3.7c0.2-1.2,1.4-1.7,1.9-2.7C24.6,106.7,24.9,106.2,25.4,106z"/>
		<path class="st12" d="M66.3,61.1c0.3,1.5,0.3,1.5,2.7,0.8c-0.1,0.9-0.2,1.8-0.4,2.6c-1.2,0.1-2.3,0.2-3.5,0.3
			c-0.1-1-0.1-2.1-0.2-3.1C65.3,61.4,65.8,61.2,66.3,61.1z"/>
		<path class="st10" d="M65.1,64.8c1.2-0.1,2.3-0.2,3.5-0.3c0,0.9,0,1.8,0.1,2.7c-1.2,0.1-2.5,0.3-3.7,0.3
			C64.9,66.6,65,65.7,65.1,64.8z"/>
		<path class="st13" d="M65.6,61.3c-0.2,0.1-0.4,0.3-0.6,0.4c-0.4-0.6,0-1.3-0.4-1.9c0.3-0.1,0.5-0.1,0.8-0.2
			c-0.2,0.6,0.2,1.2-0.2,1.7C65.2,61.2,65.4,61.3,65.6,61.3z"/>
		<path class="st7" d="M120.8,57.6c-0.7,0.3-1.5,0.1-2.3,0.2c-0.1-0.5-0.5-1.1-0.1-1.5c0.3-0.4,0.5,0.2,0.8,0.2
			C119.9,56.6,121.1,56.3,120.8,57.6z"/>
		<path class="st7" d="M117.9,58c0,0.2,0.1,0.5-0.4,0.4c-0.3-0.1-0.7-0.1-1-0.1C116.8,57.8,117.3,57.6,117.9,58z"/>
		<path class="st11" d="M71.9,59.5c-0.9,0.3-1.9,0.5-1,1.5c-0.2,0.1-0.4,0.2-0.5,0.2c-0.4-0.4-0.1-1-0.2-1.4c0.3-0.5,0-0.9,0-1.4
			c0.6,0.1,1.2-0.1,1.8,0.3C71.9,59,71.9,59.2,71.9,59.5z"/>
		<path class="st14" d="M65.6,61.3c-0.2,0-0.3,0-0.5-0.1c0.5-0.4,0-1,0.2-1.5c0.9,0,1.8,0,2.7,0c0.1,0.1,0.1,0.1,0.2,0.2
			c-0.4,0.7-1.6,0-1.7,0.7c-0.2,0.1-0.2,0.3-0.2,0.5C66,61.1,65.8,61.2,65.6,61.3z"/>
		<path class="st5" d="M70.2,59.9c0.2,0.5-0.1,1,0.2,1.4c0,0.4-0.1,0.8-0.1,1.1c-1.1-0.2-0.2-1.3-0.9-2.5
			C69.6,59.9,69.9,59.9,70.2,59.9z"/>
		<path class="st7" d="M66.5,60.6c0.1-0.7,1.3,0,1.7-0.7c0.3,0,0.7,0,1,0C68.9,60.8,67.3,60.4,66.5,60.6z"/>
		<path class="st3" d="M115.2,79.3c0.2,3.3-0.4,9.1-0.4,9.4c-12.1-3.1-24.4-5.8-36.6-8.2c0-0.8,0.5-0.5,0.9-0.3c0-1,0-1-0.9-1.2
			c-1.1-0.3-2.2-0.6-3.3-0.8c0.1-2.1,0.1-4.3,0.2-6.4"/>
		<path class="st12" d="M100.2,86.5c-0.3,1.1,1.3,1.2,1.7,2.1c-1,0.5-2.2,0.9-3.3,0.7c-1.5-0.8-3.2-0.8-4.8-1.2
			c-0.2-0.1-0.5-0.1-0.5,0.2c0.2,0.1,0.4,0.1,0.7,0.2c1,0.1,0,1.2,1.2,1.4c1.5,0.6-0.2,1.2-0.2,2.1c-0.7-0.2-1.7,1-1.9-0.4
			c0.3-3-0.7-1.9-2.7-1.3c-0.9-0.5-2.1-0.7-2.9-1.3c0.1-0.3,0.5-0.1,0.7-0.4c-1.1-0.2-2.1-0.4-3.2-0.6c-0.1-0.7,0-0.9,0.9-0.9
			c3-0.2,5.9,0.9,8.8,0.4c-0.3-0.4-1.1-0.1-0.9-0.9c0-0.4,0.3-0.4,0.6-0.4C96.1,86.1,98.2,86.1,100.2,86.5
			C100.2,86.4,100.2,86.5,100.2,86.5z"/>
		<path class="st8" d="M79,91.5c-0.8-1.2-2.8-0.3-2.4-2.5c0-0.8-0.2-1.8,1-1.5c1.1,0.6,2.2,0.2,3.4,0.1c1.2,0.3,2.3,0.8,3.5,1
			c0.4,0.2,0,0.8,0.5,1.1c1.2,0.6,1.7,1.6,1.4,2.9c-1.2,0.6-2.5,0.2-3.8,0.7c0.3,0.4,1.6,0.1,1,0.9c-0.5,0-0.9-0.6-1.6-0.3
			c-1.2,0.5-1.9,0-2.1-1.2c1,0,2-0.1,3.1-0.4c-0.9-0.4-1.6-0.3-2.4-0.2c-0.4-0.4-0.6-0.4-0.6,0.2c-0.2,0-0.4,0-0.6,0
			C79.5,91.9,79.7,91.4,79,91.5z"/>
		<path class="st7" d="M79.9,92.6c0.3,1.3,1,1.7,2.1,1.2c0.6-0.3,1,0.3,1.6,0.3c0,0.1,0,0.3,0,0.4c-0.2,0.1-0.6-0.1-0.7,0.4
			c0.3,0,0.6,0,0.9,0c-0.1,2.1,0.6,1.6,2.2,1.6c0.3,0.3,0.6,0.1,0.9,0.2c1,1.1,3.8,0.4,3.5,2.3c-1.4,0.2-2.5-0.9-3.9-0.8
			c-1.8-1.1-4.1-1.1-6-1.9c0.6-1.3-1.6-0.5-2.1-1.4c-0.3-0.3-1,0.2-1.6,0.1c-2.3,0-1.4-1.6-1.6-3.2c1.2,0.5,2.4-0.1,3.6,0
			c0.2,0,0.2-0.1,0.2-0.3c0.7-0.1,0.5,0.4,0.5,0.7c-0.1,0.1-0.3,0.2-0.5,0.3C79.4,92.6,79.6,92.6,79.9,92.6z"/>
		<path class="st5" d="M74.9,78.2c1.1,0.1,2.2,0.5,3.3,0.8c0.9,0.2,0.9,0.2,0.9,1.2c-0.4-0.1-0.9-0.5-0.9,0.3
			c-1.1-0.1-2.2-0.3-3.3-0.5C74.8,79.4,74.9,78.8,74.9,78.2z"/>
		<path class="st4" d="M84.4,88.6c-1-0.3-2-0.3-2.9-0.9c2.2-0.8,4.3,0.3,6.5,0.6c-0.2,0.3-0.6,0.1-0.7,0.4
			C86.3,88.7,85.4,88.7,84.4,88.6z"/>
		<path class="st4" d="M80.9,87.7c-1.1,0.1-2.3,0.5-3.4-0.1C78.7,87.2,79.8,86.8,80.9,87.7z"/>
		<path class="st11" d="M100.2,86.5c0.7-0.3,2-0.6,2.9-0.1C102.2,86.8,101.1,86.6,100.2,86.5z"/>
		<path class="st4" d="M82.2,96.9c1.3,0.3,2.7,0.5,3.9,1.2c-2.6,0.1-5.1,0.6-7.9,0.9c2.5,1.2,4.8,1.7,7.3,2.4
			c-2.1,0.9-4.3-0.3-6.4-0.8c-1.3-0.9-4.1-0.6-3.5-3C77.8,97.4,80,97.1,82.2,96.9z"/>
		<path class="st14" d="M89.6,99c2,0.3,3.9-0.4,5.9-0.3c1.8,1,2.3-0.3,4.2,1.5c-3.4,0.5-6.7,0.9-10.1,1.1c0-0.3,0.3-0.8-0.5-0.8
			c-0.7,0-0.8-1.2,0.1-1C89.7,99.6,89.6,99.3,89.6,99z"/>
		<path class="st15" d="M89.6,99c0,0.2,0.1,0.6-0.4,0.5c-0.8-0.2-0.8,1.1-0.1,1c0.7-0.1,0.4,0.4,0.5,0.8c-2.1,0.2-4.2,0.3-6.3-0.5
			c0.4-1.3,3.9-2.2,5.1-1.8c0.1,0,0.3-0.1,0.4-0.2C89.1,99,89.4,99.1,89.6,99z M87.4,99.3c0-0.1,0-0.1,0-0.1c0,0,0,0-0.1,0
			C87.4,99.2,87.4,99.2,87.4,99.3z"/>
		<path class="st15" d="M86.7,104.1c0.4,0.6,2,2,0.6,2.4c-0.1-0.3-0.2-0.5-0.5-0.4c-0.7,0.2-1.4,0.4-1.5,1.3
			c-0.1,0.1-0.1,0.1-0.2,0.2c0,0,0,0,0,0c-0.5-0.2-1.2,0.3-1.5-0.2c-0.3-0.7,0.5-0.9,0.9-1.3c0.3-0.3,0.5-0.7,1-0.7
			c0.9,0.1,1.2-0.3,0.8-1.1C86.4,104.1,86.6,104.1,86.7,104.1z"/>
		<path class="st11" d="M89.4,112.2c-0.1,0.2-0.1,0.5-0.2,0.7c-0.2,0.4,0,1.2-0.8,1c-0.6-0.1-1.2-0.3-1.4-1.1
			c-0.1-0.5-0.2-1.1-0.7-1.4c0-0.1,0-0.1,0-0.2C87.5,111.3,88.4,111.8,89.4,112.2z"/>
		<path class="st6" d="M87.3,106.5c0.1,0.6-0.4,1.3,0.6,1.6c0.3,0.1-0.5,0.6-0.6,1c-0.1,0.1-0.2,0.1-0.4,0.2
			c-0.7-0.4-1.6-0.4-2.4-0.7c0,0,0-0.1,0-0.1c0.2-0.1,0.5-0.1,0.2-0.5c0.6-1.5,1.8,0.9,2.1-1.3C86.9,106.6,87.1,106.5,87.3,106.5
			L87.3,106.5z"/>
		<path class="st14" d="M79.7,100.8c1.2,0.3,2.3,0.7,3.5,1c-1.3,0.3-2.6,0.4-3.9,0.4C79.5,101.7,79.8,101.3,79.7,100.8z"/>
		<path class="st15" d="M84.5,108.7c0.8,0.3,1.6,0.2,2.4,0.7c-0.7,0.6-1.6,0.5-2.3,0.4C83.8,109.7,84.5,109.1,84.5,108.7z"/>
		<path class="st6" d="M86.7,104.1c-0.1,0-0.1,0-0.2,0c0.2-0.4,0.4-0.9,1-0.9c0.6-0.2,0.6,1.3-0.1,1.1
			C87.2,104.2,87,103.9,86.7,104.1z"/>
		<path class="st13" d="M86.3,104.2c0.4,0.9,0.1,1.2-0.8,1.1C85.5,104.7,85.4,104,86.3,104.2z"/>
		<path class="st15" d="M84.8,108.2c0.3,0.3,0,0.4-0.2,0.5C84.5,108.4,84.6,108.3,84.8,108.2z"/>
		<path class="st11" d="M100.5,119.7c0.8-1.9-1.8-2.6-1-4.3c1.1,0.1,2.1,0.7,3.1,1c1.2,2.9-1,5.2,2.3,7.2c-0.1,0.1-0.1,0.1-0.2,0.2
			c-0.3,0-0.7,0-0.8,0.4c-0.1,0-0.3,0-0.4,0c-0.9-0.7-2-0.4-2.3,0.6c-0.7,0-1.3,0.1-2-0.1c0.1-0.2,0.2-0.4,0.2-0.5
			c0.5,0,1.1,0.1,1.2-0.3c0.1-0.8,0.9-1.6,0.2-2.4C101.1,120.7,101.1,120.1,100.5,119.7z"/>
		<path class="st2" d="M102.7,116.4c-0.9-0.3-1.8-0.6-2.7-1c2.6-1.5,6.7,1.1,9.3,2c0.2,0.1,0.6,0.1,0.5,0.4
			c-0.2,0.6-1.2-0.1-1.1,0.7C106.6,118.2,104.8,116.8,102.7,116.4z"/>
		<path class="st2" d="M112.7,117.7c0,0.2-0.1,0.2-0.2,0.1C112.5,117.6,112.6,117.6,112.7,117.7z"/>
		<path class="st2" d="M99.2,89.3c0.9-0.1,1.9-0.2,2.7-0.8c0.9,0.1,0,2,0.2,2.7c-0.4,1.4-0.9,2-0.4,3.5c-1.9,0.2-3.8,0.3-5.7,0.6
			c0,0,0,0,0,0C97.3,93.2,99.9,92.6,99.2,89.3z"/>
		<path class="st6" d="M96.1,95.3c1.9-0.3,3.8-0.5,5.7-0.6c0,0.2-0.1,0.4-0.3,0.4c-1.8-0.1-3.6,0.5-5.4,0.4
			C96,95.4,96,95.4,96.1,95.3z"/>
		<path class="st11" d="M96.1,95.3c0,0,0,0.1,0,0.1c-1.4,0.4-2.7,0.4-4.1,0.5c0-0.1-0.1-0.2-0.1-0.2C93.2,95.5,94.6,95.2,96.1,95.3
			L96.1,95.3z"/>
		<path class="st14" d="M86.9,96.7c-0.3-0.1-0.7,0.1-0.9-0.2c1.5-0.2,2.9-0.4,4.4-0.6c0,0.1,0,0.1,0.1,0.2
			C89.3,96.3,88.1,96.5,86.9,96.7z"/>
		<path class="st6" d="M90.5,96.1c0-0.1-0.1-0.1-0.1-0.2c0.5-0.1,1-0.1,1.4-0.2c0,0.1,0,0.1,0.1,0.2C91.4,96.2,90.9,96.1,90.5,96.1z
			"/>
		<path class="st6" d="M91,96.4C91,96.4,91,96.4,91,96.4c0,0.1,0,0.1,0,0.1C90.9,96.4,90.9,96.4,91,96.4z"/>
		<path class="st13" d="M90.7,108.6c0.4-0.2,4-0.3,2.3,0.4c-0.4,0.1-0.9-0.2-1.2,0.3c-0.4-0.1-1.4,0.2-1.5-0.1
			C90.1,108.8,90.6,108.8,90.7,108.6z"/>
		<path class="st8" d="M89,106.1c0.9-0.5,1.7-0.4,1.4,0.8c0.1,0.5-0.8,0.6-0.7,0C89.7,106.5,89.3,106.4,89,106.1z"/>
		<path class="st6" d="M89,103.9c0.5-0.2,1-0.4,1.4,0c0.1,0.2,0.1,0.6-0.1,0.6C89.7,104.7,89.4,104.1,89,103.9z"/>
		<path class="st14" d="M94.3,104.3c0.2,0,0.3,0.1,0.4,0.2c-0.1,0.4,0.1,0.9-0.2,1.3c-0.5-0.3,0-0.9-0.5-1.1
			C94.1,104.5,94.2,104.4,94.3,104.3z"/>
		<path class="st6" d="M103.3,90.9c-0.4-0.6-0.2-1.9,0.7-1.7c0.7,0.2,1.1,1.3,0.7,1.9C104.2,91,103.7,90.9,103.3,90.9z"/>
		<path class="st14" d="M103.3,90.9c0.4,0.1,0.9,0.1,1.3,0.2c0,0.1,0,0.3,0,0.4c-0.9-0.1-1.7,0.3-2.6,0.2c0-0.1,0-0.3,0.1-0.4
			C102.4,91,103,91.5,103.3,90.9z"/>
		<path class="st14" d="M115.1,75.9c0,0.1,0,0.2,0,0.3c-0.3,0-0.7,0-1,0c-0.3-0.4-0.9,0-1.2-0.4c0-0.7,0-1.3,0-2
			c0.8-0.2,1.4,0.4,2.1,0.4C115.1,74.8,115.1,75.4,115.1,75.9z"/>
		<path class="st6" d="M115.1,74.3c-0.7-0.1-1.3-0.6-2.1-0.4c0-0.3,0-0.6,0-0.9c0.3,0,0.4-0.2,0.4-0.4c0.6,0,1.2,0,1.7,0
			C115.1,73.2,115.1,73.7,115.1,74.3z"/>
		<path class="st6" d="M126.2,106.4c0.8,0.8,2,1.2,3,1.7c1.4-0.6,2.6,0.6,3.9,0.7c0.8,0,1.2,0.8,1.4,1.5
			C132,109,126.9,110.2,126.2,106.4z"/>
		<path class="st9" d="M114.8,79.3c-0.9-0.1-1.7-0.2-2.6-0.3c-0.8-1.1,0.7-1,0.6-2.5c0.5,0.6,0.8,1,1.3,1.6c0-0.7,0-1.3,0-1.8
			c0.3,0,0.7,0,1,0C115,77.2,115.5,78.5,114.8,79.3z"/>
		<path class="st14" d="M115,85.6c0.1-1.7,0.1-3.4,0.2-5.1c0.7,0.5,1.1,1.2,1.5,2c-0.3,0-0.4,0.2-0.4,0.5
			C116.3,83.5,115.5,85.7,115,85.6z"/>
		<path class="st2" d="M97.2,105.6c0.3,0.3,0.3,0.7,0,1C97.2,106.3,97.2,106,97.2,105.6z"/>
		<path class="st2" d="M123.7,102.7c0,0,0.1,0,0.1-0.1C123.8,102.7,123.8,102.7,123.7,102.7C123.7,102.7,123.7,102.7,123.7,102.7z"
			/>
		<path class="st10" d="M119.8,58.7C119.8,58.7,119.8,58.7,119.8,58.7C119.8,58.7,119.8,58.7,119.8,58.7z"/>
		<path class="st14" d="M106.9,123.9c2.7,1.4-0.8,2.4-2.1,2.9c-0.1,0.1-0.3,0-0.4,0c-0.9,0.7-1.2,0.2-1.4-0.6c0.3-0.3,0.5-0.6,0.8-1
			c0.1,0,0.3-0.1,0.4-0.2c0,0,0.1-0.1,0.2-0.2c0.3,0,0.7,0.1,0.8-0.4c0.2,0,0.5,0,0.6-0.2c0.1,0,0.3,0,0.4-0.2c0,0,0,0,0,0
			c0.2,0,0.3,0,0.4-0.2C106.6,124,106.8,123.9,106.9,123.9z"/>
		<path class="st5" d="M99.6,124.1c-0.1,0.2-0.2,0.4-0.2,0.5c-1.5,0.2-3.1,0.2-4.6,0.3c0-1.3,0-1.3,1.3-1.5c0.7-0.1,1.3-0.2,2-0.3
			c0.3,0.6,1,0.4,1.5,0.5C99.6,123.8,99.6,123.9,99.6,124.1z"/>
		<path class="st14" d="M108.3,125.5c0.8-0.1,1.5,0.4,2.3,0.4c0,0.4,0,0.8,0,1.1c-0.4,0.2-1.2-0.7-1.4,0.4l0,0
			c-0.3-0.1-0.6,0.2-1,0.2C108.3,126.9,108.3,126.2,108.3,125.5z"/>
		<path class="st8" d="M96.4,124.8c0.3,0,0.6,0,1-0.1c-0.5,1-1.4,1.6-2.3,2.1c0-0.7-0.3-1.3-0.2-1.9c0.1,0,0.3,0,0.4,0
			C95.7,125.2,96.1,125.3,96.4,124.8z"/>
		<path class="st10" d="M101.3,124.7c0.3-1.1,1.4-1.4,2.3-0.6c0,0.1,0,0.2,0,0.2c-0.1,0-0.3,0-0.4,0.2
			C102.6,124.6,101.9,124.9,101.3,124.7z"/>
		<path class="st8" d="M101.8,124.8c0.5-0.1,1-0.2,1.5-0.3c-0.2,0.4-0.7,0.5-0.9,0.8c-0.1,0.2-0.3,0.5-0.6,0.2
			C101.4,125.3,101.7,125.1,101.8,124.8z"/>
		<path class="st8" d="M106,123.2c0.3-0.5,0.9-0.6,1.3-0.8c0.3-0.1,0.3-0.1,0.2,0.4C107,122.7,106.6,123.3,106,123.2z"/>
		<path class="st8" d="M103.8,125.3c-0.3,0.3-0.5,0.6-0.8,1c-0.1,0-0.3,0-0.4,0l0,0C102.6,125.5,103.1,125.3,103.8,125.3z"/>
		<path class="st10" d="M102.7,126.3c0,0.3,0.1,0.7,0.1,1C102,127.6,102,126.4,102.7,126.3C102.7,126.3,102.7,126.3,102.7,126.3z"/>
		<path class="st14" d="M109.3,127.4c0.2,0.1,0.5-0.3,0.7,0C110.2,127.9,109.3,128,109.3,127.4L109.3,127.4z"/>
		<path class="st8" d="M105.2,124.5c-0.1,0.5-0.5,0.4-0.8,0.4C104.6,124.7,104.9,124.6,105.2,124.5z"/>
		<path class="st8" d="M104,124.1c0.1-0.4,0.5-0.4,0.8-0.4C104.7,124.1,104.4,124.2,104,124.1z"/>
		<path class="st8" d="M105.8,124.3c-0.1,0.2-0.4,0.2-0.6,0.2C105.3,124.3,105.6,124.3,105.8,124.3z"/>
		<path class="st8" d="M105.6,123.4c0.1-0.2,0.2-0.2,0.4-0.2C105.9,123.3,105.8,123.4,105.6,123.4z"/>
		<path class="st8" d="M105.4,123.3c0.1,0,0.1,0,0.2,0c-0.1,0.2-0.2,0.2-0.4,0.2c0,0,0,0,0,0C105.3,123.5,105.3,123.4,105.4,123.3z"
			/>
		<path class="st8" d="M107.7,123.4c-0.1,0.2-0.2,0.2-0.4,0.2C107.4,123.4,107.6,123.4,107.7,123.4z"/>
		<path class="st8" d="M104.8,123.7c0.1-0.1,0.1-0.1,0.2-0.2c0,0,0.1,0,0.2,0c0,0,0,0,0,0C105.1,123.7,105,123.7,104.8,123.7z"/>
		<path class="st8" d="M107.4,123.6c-0.1,0.2-0.2,0.2-0.4,0.2C107,123.6,107.2,123.6,107.4,123.6z"/>
		<path class="st8" d="M106.9,123.9c-0.1,0-0.2,0-0.4,0c0.1-0.2,0.2-0.2,0.4-0.2C107,123.8,106.9,123.9,106.9,123.9z"/>
		<path class="st8" d="M106.6,123.9c-0.1,0.2-0.2,0.2-0.4,0.2C106.3,124,106.4,123.9,106.6,123.9z"/>
		<path class="st8" d="M103.6,124.3c0-0.1,0-0.2,0-0.2c0.1,0,0.3,0,0.4,0C104,124.3,103.8,124.3,103.6,124.3z"/>
		<path class="st8" d="M106.2,124.1c-0.1,0.2-0.2,0.2-0.4,0.2C105.9,124.2,106,124.1,106.2,124.1z"/>
		<path class="st8" d="M103.3,124.5c0.1-0.2,0.2-0.2,0.4-0.2C103.6,124.5,103.4,124.5,103.3,124.5z"/>
		<path class="st8" d="M104.2,125.1c-0.1,0.2-0.2,0.2-0.4,0.2C103.9,125.1,104.1,125.1,104.2,125.1z"/>
		<path class="st8" d="M104.4,124.9c-0.1,0.1-0.1,0.1-0.2,0.2C104.3,125.1,104.4,125,104.4,124.9z"/>
		<path class="st11" d="M112,127.4C112,127.4,112.1,127.4,112,127.4C112.1,127.4,112,127.4,112,127.4C112,127.5,112,127.4,112,127.4
			z"/>
		<path class="st8" d="M150.7,115c0.4,0.2,2.1,0.3,1.9,0.8c-4.7-1.3-9.5-2.6-14.2-3.9c0.5-0.5,1.1,0,1.5,0.1
			C143.6,113,147.2,114,150.7,115z"/>
		<path class="st14" d="M114.7,123.7c0.1-2.6,1.7-0.8,2.1-2.1c0.9,0.2,1.8,0.6,2.9,1.1C118,123.3,116.4,123.6,114.7,123.7z"/>
		<path class="st8" d="M123.9,125.7c-0.5,0-0.3-0.3-0.2-0.6c0-0.4,0-0.7,0-1.1c0.3-0.2,0.6-0.2,1-0.3c0.6,0.6-0.1,1.1-0.1,1.6
			C124.3,125.5,124.1,125.6,123.9,125.7z"/>
		<path class="st6" d="M71.9,89.9c0-0.2,0.1-0.3,0.2-0.4c0.4-1.1,0.1-2.2,0-3.3c-0.1-2,0.1-3.9-0.3-5.9c1.4-0.3,1.5-0.2,1.6,0.9
			c0,2.5,0,5,0,7.5c0,0.5-0.1,0.9-0.4,1.3C72.7,89.9,72.3,89.9,71.9,89.9z"/>
		<path class="st13" d="M72.3,100.6c-0.5-0.4-0.4-0.9-0.4-1.4c0-1.2-0.2-2.3-0.4-3.5c1.4,1.2,2.1,2.9,2.5,4.7
			c-0.1,0.1-0.1,0.2-0.2,0.3c0,0,0,0,0,0c-0.3,0.1-0.6,0.2-0.9,0.3C72.7,100.9,72.8,100.3,72.3,100.6z"/>
		<path class="st6" d="M82.2,96.9c-2.2,0.2-4.4,0.5-6.6,0.7c0-0.2,0-0.5,0-0.7c0.7-0.4,1.5-0.3,2.3-0.4c0.4-0.1,0.9,0.2,1-0.4
			c0.1,0,0.1,0,0.2,0c0,0.1,0.1,0.2,0.1,0.3c0-0.1,0.1-0.2,0.1-0.2c0.4,0.1,0.8,0.1,1.2,0.2C81,96.7,81.7,96.5,82.2,96.9z"/>
		<path class="st7" d="M78.9,96.1c-0.1,0.6-0.6,0.3-1,0.4c-0.8,0.1-1.6,0-2.3,0.4c-0.4-1.1-0.3-1.3,0.8-1.2
			C77.2,95.7,78.2,95.3,78.9,96.1z"/>
		<path class="st6" d="M76.8,99.7c0.8,0.2,1.6,0.4,2.3,0.8c-0.1,1.3-1.6,0.7-2.4,0.6C76,100.7,76.6,100.2,76.8,99.7z"/>
		<path class="st5" d="M71.5,95.7c0.2,1.2,0.4,2.3,0.4,3.5c-0.3-0.1-0.7-0.1-1-0.2c-0.1-0.9-0.1-1.8-0.2-2.7
			C71.1,96.2,71.1,95.7,71.5,95.7z"/>
		<path class="st7" d="M79.3,96.1c0,0.1-0.1,0.2-0.1,0.2c0-0.1-0.1-0.2-0.1-0.3C79.2,96.1,79.3,96.1,79.3,96.1z"/>
		<path class="st11" d="M73.9,100.7c0.1-0.1,0.1-0.2,0.2-0.3C74.1,100.5,74.1,100.7,73.9,100.7z"/>
		<path class="st15" d="M69.2,101c-0.6-0.2-1.4,0.1-1.9-0.6c-0.4-0.4-1.7,1.8-2.4,2c-0.8-0.1-1.7,0-2.5,0.1c0-0.3,0-0.7-0.2-0.9
			c2.3-1.2,1.9-3.1,1.4-5.3c0.6-0.3,0.1-0.8,0.2-1.1c0.2,0,0.5-0.1,0.7-0.1c0,0.5,0.4,0.6,0.9,0.7c0.7,6.2-1.4,6.2,4,1.8
			C69.3,98.7,69.2,99.8,69.2,101z"/>
		<path class="st10" d="M62.2,101.6c0.2,0.3,0.2,0.6,0.2,0.9c-0.4,0.1-0.8,0.1-1.2,0.2c0-0.3,0-0.6,0-1
			C61.5,101.7,61.9,101.6,62.2,101.6z"/>
		<path class="st9" d="M69.3,97.6c-1,0.8-1.9,1.6-2.8,2.4c-0.3,0.3-0.5,0.8-0.9,0.7c-0.4-0.2-0.2-0.7-0.2-1.1c0-2.6-0.2-5.1-0.2-7.7
			c1.1-0.5,1.8-2.3,3.3-1.6C70.1,90.1,69.2,96.4,69.3,97.6z"/>
		<path class="st13" d="M70.1,78.8c0.1,3.9,0.3,7.8,0.4,11.7c-0.3,0-0.3,0.5-0.7,0.3c-0.3-0.2-0.1-0.5-0.2-0.7
			c-0.1-0.3-0.2-0.7-0.2-1c-0.1-3.4-0.4-6.8-0.3-10.3C69.4,78.7,69.7,78.6,70.1,78.8z"/>
		<path class="st9" d="M69.2,84.6c0.1,1.5,0.1,2.9,0.2,4.4c-0.6,0.2-1.2-0.1-1.7-0.3c-0.3-0.8-0.5-1.5-0.4-2.4c1.2,0.2,0.9-1,1-1.8
			C68.6,84.6,68.9,84.6,69.2,84.6z"/>
		<path class="st15" d="M67.6,88.6c0,0.1,0,0.1,0,0.2c-0.9,1,0.4,0.4,0.4,1.3c-1.2,0-1.7,1.3-2.7,1.7c-0.4-0.6-0.2-1.3-0.2-2
			C65.9,89.3,66.6,88.3,67.6,88.6z"/>
		<path class="st13" d="M70.9,100.8c0,1,0.3,2.3-1.2,2.4c-0.4-0.6,0.8-0.8,0.5-2.2c0-0.2-0.2-0.4,0.1-0.5
			C70.7,100.3,70.7,100.7,70.9,100.8z"/>
		<path class="st11" d="M71.1,90.5c0.2-0.1,0.4-0.3,0.6-0.4c0.8,0.2,0.4,0.8,0.5,1.3C71.6,91.3,71.5,90.7,71.1,90.5z"/>
		<path class="st15" d="M68.6,90.3c-0.1,0-0.3-0.1-0.4-0.1C68.3,89.8,68.6,90,68.6,90.3z"/>
		<path class="st13" d="M74.1,101.2c0,0.1-0.2,0.5-0.3,0.2C73.8,101.2,74,101.2,74.1,101.2z"/>
		<path class="st6" d="M62.2,101.6c-2.2,0.3-4.4,0.6-6.6,0.5c0.1-0.6-0.3-1.1-0.1-1.7c1-0.7,2.2-1.3,3-2.5c-1.1-0.1-2.1-0.2-3.1-0.2
			c0-0.3,0-0.6,0-0.9c2.7-1.3,5.5-1.5,8.4-1.6c-0.1,0.4,0.4,0.8-0.2,1.1c-0.4,0-0.7,0.1-0.6,0.5c0.1,0.5,0.5,0.2,0.8,0.3
			c0.2,0.4,0.2,0.8,0.2,1.2c-0.5,0-1-0.1-1,0.7c0,0.8,0.6,0.6,1,0.6C63.7,100.6,62.9,101,62.2,101.6z"/>
		<path class="st15" d="M49.3,84.1c0.3-0.6,0.9,0.1,0.4,0.5c-4,4-8.3,7.6-12.3,11.5c-1-0.1-0.7,1.2-1.5,1.4
			c-1.1-0.2-0.7-0.4-0.6-1.4c0.7-0.8,1.5-1.5,2.4-2.1c0.6,0.8,3.1-1.8,3.7-2.3c1.6-1.2,2.9-2.7,4.4-4c1-0.9,2.2-1.7,3-2.9
			c0,0,0,0,0,0C49.2,84.9,49.4,84.6,49.3,84.1z"/>
		<path class="st13" d="M55.3,96.8c0,1.8,0,3.6,0.2,5.3c-1.5-0.3-1.5-0.3-1.6-1.6c0-1.2-0.1-2.3-0.1-3.5c0-0.3-0.1-0.8,0.5-0.7
			C54.6,96.6,55,96.6,55.3,96.8z"/>
		<path class="st4" d="M55.3,96.8c-0.3-0.2-0.7-0.2-1-0.5c1.5-2,7.6-1.6,10-1.8c0.2,0.2,0.1,0.4,0.1,0.5
			C61.4,95.3,58.2,95.3,55.3,96.8z"/>
		<path class="st11" d="M48.7,84.8c-0.8,1.2-1.9,2-3,2.9c-1.4,1.3-2.6,2.8-4.2,3.8c0-0.2,0-0.5,0-0.7c2.2-2,4.5-4,6.8-5.9
			C48.4,84.8,48.6,84.6,48.7,84.8z"/>
		<path class="st10" d="M64.5,95.1c0-0.2,0.1-0.4-0.1-0.5c0.1-2,0.1-4,0.2-6c0.1,0,0.2,0,0.3,0c0.1,0.4-0.1,0.9,0.2,1.3
			c0.1,2,0.3,3.9,0.2,5.9C64.9,95.7,64.5,95.6,64.5,95.1z"/>
		<path class="st6" d="M35.3,96.1c-0.1,1-0.5,1.2,0.6,1.4c-0.1,0.6-0.6,0.8-1,1.2c-0.4,0-0.8,0.1-0.7,0.6c0,0,0,0,0,0
			c-0.8-0.4-0.3-1.1-0.4-1.6C34.3,97.1,34.7,96.5,35.3,96.1z"/>
		<path class="st13" d="M40.4,92.4c-0.5,0.6-1.9,2.1-2.7,1.6c0.9-0.6,1.5-1.5,2.5-2C40.2,92.1,40.2,92.3,40.4,92.4z"/>
		<path class="st11" d="M40.4,92.4c-0.2-0.1-0.2-0.3-0.3-0.5c0.3-0.2,0.5-0.5,0.8-0.7c0.1,0.1,0.3,0.3,0.4,0.4
			C41.2,92.1,40.8,92.2,40.4,92.4z"/>
		<path class="st13" d="M41.4,91.7c-0.1-0.1-0.3-0.3-0.4-0.4c0.1-0.2,0.3-0.4,0.5-0.5c0,0.2,0,0.5,0,0.7
			C41.5,91.6,41.5,91.6,41.4,91.7z"/>
		<path class="st6" d="M36.5,96.9c0-0.4,0.3-0.6,0.6-0.8c0,0.1,0,0.2,0,0.4C36.9,96.7,36.8,96.9,36.5,96.9z"/>
		<path class="st12" d="M34.2,99.3c-0.1-0.6,0.3-0.6,0.7-0.6C34.8,99,34.6,99.2,34.2,99.3z"/>
		<path class="st11" d="M49.3,84.1c0,0.4-0.1,0.7-0.6,0.7C48.7,84.4,49.1,84.3,49.3,84.1z"/>
		<path class="st12" d="M37.1,96.5c0-0.1,0-0.2,0-0.4c0.1,0,0.2,0,0.4,0C37.4,96.3,37.3,96.4,37.1,96.5z"/>
		<path class="st9" d="M65.1,89.9c-0.3-0.4-0.1-0.9-0.2-1.3c0.1-1.6-0.2-3.2,0.2-4.7c0.5,0.1,1,0.3,1.5,0.2c0.1,1.5-0.4,3.1,0.5,4.5
			C66.3,88.8,65.7,89.4,65.1,89.9z"/>
		<path class="st15" d="M69.2,84.6c-0.3,0-0.6,0-1-0.1c-0.2-0.5-0.6-0.5-1-0.5c-0.1-0.2-0.2-0.4-0.2-0.6c0.4-1.4,0.1-2.8,0-4.3
			c0.7-0.1,1.2,0.7,1.9,0.6C69.1,81.4,69.1,83,69.2,84.6z"/>
		<path class="st1" d="M67.1,83.4c-0.1,0.2,0.1,0.4,0.2,0.6c0.1,1.5-0.4,3.2,0.3,4.6c-0.2,0-0.4-0.1-0.6-0.1c-0.8-1.4-0.4-3-0.5-4.5
			"/>
		<path class="st1" d="M66.5,79.9c0-0.5,0-0.9,0.7-0.8"/>
		<path class="st10" d="M31.1,108.6c-0.6,0-0.9-0.6-1.5-0.6c-0.1-1.1-0.1-2.2,0-3.3c1,0.3,0,2.2,1.5,1.6c0.3,0.1,0.2,0.4,0.2,0.6
			C30.9,107.4,31.1,108,31.1,108.6z"/>
		<path class="st6" d="M30.1,103.1c0-0.6,0.3-1,0.9-1.2c1,0.5,0.3,1.3,0.3,1.9c0,0-0.1,0.1-0.1,0.1
			C30.7,103.7,31.2,102.4,30.1,103.1z"/>
		<path class="st6" d="M31.3,106.8c0-0.2,0-0.5-0.2-0.6c0-0.8,0.2-1.5,0.2-2.3c0,0,0.1-0.1,0.1-0.1
			C31.8,104.5,31.8,106.3,31.3,106.8z"/>
		<path class="st6" d="M31.3,110.1c-0.3-0.3-0.3-0.5,0-0.8C31.5,109.6,31.5,109.9,31.3,110.1z"/>
		<path class="st13" d="M31.1,104.6c0,0.5-0.1,1.1-0.1,1.6c-1.5,0.6-0.4-1.3-1.5-1.6c0-0.3-0.1-0.7,0-1c0.3,0,0.4-0.3,0.5-0.5
			c0.9-0.7,0.7,0.3,1,0.7C31,104.1,30.8,104.4,31.1,104.6z"/>
		<path class="st10" d="M166.9,120.2c-0.3,0.1-0.8-0.1-0.8,0.4c-0.3-0.2-0.6-0.3-0.9-0.5c0.1-0.4,0.4-0.4,0.7-0.5
			C166.3,119.8,166.8,119.6,166.9,120.2z"/>
		<path class="st11" d="M126.1,127.6c0.5-0.7,1.2-0.4,1.9-0.6c0,0.3,0,0.6,0,0.8C127.3,128,126.7,127.7,126.1,127.6z"/>
		<path class="st13" d="M99.5,123.6c-0.2,0-0.4,0-0.5,0c0.1-0.5-0.1-0.7-0.6-0.6c0.2-0.9-0.2-2.2,0.6-2.7c0.6-0.1,0.8,0.1,0.7,0.7
			C99.6,121.8,99.6,122.7,99.5,123.6z"/>
		<path class="st7" d="M99.6,122.2c0-0.7,0.7-2.2-0.6-1.9c0.3-0.7,1-0.5,1.5-0.6c0.5,0.5,0.5,1.1,0.5,1.7
			C100.4,121.4,100.2,122.2,99.6,122.2z"/>
		<path class="st11" d="M98.4,123c0.5-0.2,0.7,0.1,0.6,0.6c-0.4,0-0.8-0.1-1-0.4C98.1,123.1,98.2,123,98.4,123z"/>
		<path class="st9" d="M92.8,125.3c-0.1,0-0.2,0-0.2,0C92.6,125.2,92.7,125.2,92.8,125.3z"/>
		<path class="st13" d="M105.2,123.5c-3.5-1.5-1.3-4.4-2.5-7.2c0.7,0.1,1.3,0.4,2,0.7c-0.8,2.4,0,4,0.7,6.2
			C105.3,123.4,105.3,123.5,105.2,123.5z"/>
		<path class="st13" d="M100,77.4c-4-0.4-7.8-1.7-11.7-2.6"/>
		<path class="st13" d="M84.6,74.1c-0.2-1.1,2.2-0.2,2.9-0.4c0,0.2,0,0.4,0.2,0.4c1.8,0.1,3.5,1.6,5.4,0.8c5.5,1,10.8,2.6,16.4,3.2
			c0.3,0.2,0.7,0.1,1,0.4c0,0.1,0,0.1,0,0.2c-0.4,0-0.8,0.1-1.1-0.1c-0.8-0.3-3.5-0.9-3.9-0.1"/>
		<path class="st10" d="M79.6,73.1c-1.5-0.4-3.1-0.8-4.6-1.3c0-0.3,0-0.5,0-0.8c4.1,0.9,8.7,1.6,12.8,2.7c-0.7,0.4-3.3-0.9-3.3,0.3"
			/>
		<path class="st10" d="M93.1,74.9c-1.8,0.8-3.6-0.7-5.4-0.8c-0.2,0-0.2-0.2-0.2-0.4C89.4,73.9,91.3,74.4,93.1,74.9z"/>
		<path class="st2" d="M75,65.2c-0.4,0-0.4-0.6,0-0.6C75,64.8,75,65,75,65.2z"/>
		<path class="st15" d="M114.1,76.2c0,0.5,0,1.1,0,1.8c-0.5-0.6-0.8-1-1.3-1.6c0.1,1.6-1.5,1.4-0.6,2.5c-0.5,0.1-0.8-0.3-1.2-0.4
			c0.1-1.5-0.2-3,0.2-4.4c0.6-0.2,0.7-1,1.3-1.2c0,0,0.1,0.1,0.1,0.1c0.1,0.7-0.4,2.8,0.4,2.9C113.3,76.3,113.8,75.9,114.1,76.2z"/>
		<path class="st15" d="M113.4,72.5c0,0.4-0.4,0.4-0.8,0.4c0,0-0.1-0.1-0.1-0.1C112.7,72.5,112.9,72.2,113.4,72.5z"/>
		<path class="st6" d="M84.4,88.6c1,0,1.9,0.1,2.9,0.1c0.9,0.7,2,0.8,2.9,1.3c0.3,2.2-0.1,4.1-2,5.4c-0.6,0.4-3.1,1-3.7,0.5
			c-0.5-3.1,0-2.2,2.5-2.6c-0.3-0.2-1-0.1-0.7-0.7c0.2-1.3-0.3-2.3-1.4-2.9C84.4,89.5,84.8,88.9,84.4,88.6z"/>
		<path class="st9" d="M86.3,92.6c-0.3,0.6,0.3,0.5,0.7,0.7c-2.5,0.5-3-0.5-2.5,2.6c0.6,0.5,3.1,0,3.7-0.5c2-1.3,2.3-3.2,2-5.4
			c0.8-0.1,1.9-0.9,2.5-0.6c0.5,0.3,0.1,1.3,0.2,1.9c0.2,1.3,1,0.4,1.5,0.4c-1.8,1.9-3.5,0.5-2.7,3.9c0,0,0,0,0,0
			c-2.1,0.2-4.2,0.7-6.3,0.7c-2.3,0.3-1.3-0.4-1.9-2c0-0.1,0-0.3,0-0.4c0.6-0.8-0.7-0.4-1-0.9C83.8,92.8,85.2,93.2,86.3,92.6z"/>
		<path class="st8" d="M99.2,89.3c0.5,2.2-0.7,3.7-2.3,4.9c-1.5-0.8-0.1-2.3-1.4-2.2c-0.2,0-0.4-0.1-0.5-0.2
			c-0.1-0.9,1.6-1.5,0.2-2.1c-0.4-0.2-0.7-0.2-0.7-0.8c0.1-0.8-0.8-0.4-1.2-0.7c0.1-0.4,0.4-0.3,0.5-0.2
			C95.6,88.3,97.4,88.7,99.2,89.3z"/>
		<path class="st6" d="M94.9,91.8c0.2,0.1,0.4,0.2,0.5,0.2c1.4-0.1,0,1.4,1.4,2.2c-0.2,0.4-0.8,0.6-0.8,1.1
			c-1.4-0.1-2.8,0.2-4.2,0.4c-0.8-3.4,0.8-2,2.7-3.9C94.6,91.8,94.7,91.8,94.9,91.8z"/>
		<path class="st2" d="M79.9,92.6c-0.3,0-0.5,0-0.9,0c0.2-0.1,0.3-0.2,0.5-0.3c0.4-0.1,0.9,0.1,1.2-0.2c0.7-0.1,1.5-0.2,2.4,0.2
			C81.9,92.5,80.9,92.6,79.9,92.6z"/>
		<path class="st7" d="M80.7,92c-0.2,0.2-0.4,0.2-0.6,0.2C80.1,91.6,80.3,91.7,80.7,92z"/>
		<path class="st6" d="M88.9,98.8c-0.1,0.1-0.3,0.2-0.4,0.2c-1.2-0.4-4.6,0.5-5.1,1.8c-1-0.2-2-0.6-2.9-1c0.1-0.1,0.1-0.2,0.2-0.2
			c1.1,0.1,2-0.5,3-0.9c0.9-0.3,2,0,2.8-0.5C87.3,98.3,88.1,98.4,88.9,98.8z"/>
		<path class="st8" d="M86.5,98.2c-0.9,0.6-1.9,0.2-2.8,0.5c-1,0.4-1.9,0.9-3,0.9c-0.1,0-0.1,0.1-0.2,0.2c-0.7-0.1-1.4-0.3-2.3-0.9
			c2.8-0.3,5.3-0.8,7.9-0.9C86.3,98.1,86.4,98.1,86.5,98.2z"/>
		<path class="st8" d="M83.6,94.5c0.1,0.1,0.2,0.2,0.2,0.4c-0.3,0-0.6,0-0.9,0C83,94.4,83.4,94.6,83.6,94.5z"/>
		<path class="st6" d="M87.4,99.3c0-0.1,0-0.1,0-0.1c0,0,0,0,0.1,0C87.4,99.2,87.4,99.2,87.4,99.3z"/>
		<path class="st13" d="M87.3,106.4c-0.9,0.5,0,2.1-2,1.2c0-1,0.8-1.3,1.5-1.5C87.1,106,87.3,106.1,87.3,106.4z"/>
		<path class="st12" d="M85.3,107.4c0,0.1,0,0.1,0,0.2c-0.1,0-0.1,0-0.2,0C85.2,107.5,85.3,107.5,85.3,107.4z"/>
		<path class="st14" d="M99.6,122.2c0.6,0,0.8-0.8,1.4-0.8c0.7,0.9-0.1,1.6-0.2,2.4c-0.1,0.4-0.7,0.4-1.2,0.3
			C99.5,123.5,99.6,122.8,99.6,122.2z"/>
		<path class="st10" d="M112.6,73c0.1,0,0.2,0,0.4,0c0.1,1,0,1.9,0,2.9C112.2,75.8,112.8,73.6,112.6,73z"/>
		<path class="st12" d="M96.4,124.8c-0.3,0.5-0.7,0.4-1.2,0.1C95.7,124.9,96.1,124.9,96.4,124.8z"/>
		<path class="st13" d="M63.9,99.6c-0.4-0.1-1,0.2-1-0.6c0-0.8,0.5-0.7,1-0.7C63.9,98.7,63.9,99.2,63.9,99.6z"/>
		<path class="st13" d="M63.7,97.1c-0.3-0.1-0.7,0.2-0.8-0.3c-0.1-0.4,0.2-0.5,0.6-0.5C63.6,96.6,63.7,96.8,63.7,97.1z"/>
		<path class="st7" d="M67.3,86.4c0-0.8,0-1.6,0-2.3c1-0.1,1,0.6,1,1.4C68.3,86.1,68,86.5,67.3,86.4z"/>
		<path class="st12" d="M55.4,100.4c-0.1-0.9-0.1-1.8,0-2.7c1,0.1,2,0.1,3.1,0.2C57.6,99,56.5,99.6,55.4,100.4z"/>
		<path class="st12" d="M31.1,104.6c-0.3-0.2-0.2-0.5-0.1-0.8c0,0,0.1,0.1,0.2,0.1C31.2,104.2,31.3,104.4,31.1,104.6z"/>
		<path class="st13" d="M110.9,84C110.9,84.1,110.9,84.1,110.9,84C110.9,84.1,110.9,84.1,110.9,84C110.8,84.1,110.9,84,110.9,84z"/>
		<path class="st13" d="M102.1,77.4c0,0,0,0.1,0.1,0.1"/>
	</g>
</g>
</svg>
